<?xml version="1.0" encoding="utf-8"?>
<!-- Generator: Adobe Illustrator 18.1.1, SVG Export Plug-In . SVG Version: 6.00 Build 0)  -->
<!DOCTYPE svg PUBLIC "-//W3C//DTD SVG 1.1//EN" "http://www.w3.org/Graphics/SVG/1.1/DTD/svg11.dtd">
<svg version="1.1" xmlns="http://www.w3.org/2000/svg" xmlns:xlink="http://www.w3.org/1999/xlink" x="0px" y="0px"
	 viewBox="0 0 1000 1000" enable-background="new 0 0 1000 1000" xml:space="preserve">
<g id="Layer_1">
	<g>
		<path fill="#A4CF5E" d="M732.5,369.8c-54.9,0-99.4,77.6-99.4,149.9c0,50.3,21.5,84.8,53,101.1c13.8,7.2,29.6,10.9,46.3,10.9
			s32.5-3.7,46.3-10.9c31.5-16.4,53-50.9,53-101.1C831.9,447.4,787.4,369.8,732.5,369.8z"/>
		<path opacity="0.3" fill="#754C29" d="M778.8,620.8h-92.6c13.8,7.2,29.6,10.9,46.3,10.9S765,628,778.8,620.8z"/>
		<path fill="#A4CF5E" d="M404.9,597.7l-95.1-213.6c-3.8-8.6-12.4-14.2-21.9-14.3l-0.3,0l-0.2-1.5l0,1.5l-0.2,0
			c-9.5,0.1-18.1,5.7-22,14.3l-95.1,213.6c-2.6,5.9-2.8,12.4-0.5,18.4c0.6,1.7,1.5,3.2,2.4,4.7c2.5,3.8,6,6.8,10.2,8.7
			c3.1,1.4,6.4,2.1,9.7,2.1c8.2,0,15.7-4.1,20.1-10.8c0.7-1.1,1.4-2.3,1.9-3.5l16.1-36.2c0.2-0.5,0.8-0.9,1.4-0.9h111.8
			c0.6,0,1.1,0.3,1.4,0.9l16.1,36.2c0.5,1.2,1.2,2.4,1.9,3.5c4.4,6.6,11.9,10.8,20.1,10.8c0,0,0,0,0,0c3.4,0,6.6-0.7,9.7-2.1
			c4.3-1.9,7.8-5,10.3-8.7C407.4,614.2,408.4,605.5,404.9,597.7z M327.8,544.6c-0.3,0.4-0.8,0.7-1.3,0.7h-77.9c-0.5,0-1-0.3-1.3-0.7
			c-0.3-0.4-0.3-1-0.1-1.4l39-87.5c0.2-0.5,0.8-0.9,1.4-0.9s1.1,0.3,1.4,0.9l39,87.5C328.1,543.6,328.1,544.1,327.8,544.6z"/>
		<path opacity="0.3" fill="#754C29" d="M383,631.6C383,631.6,383,631.6,383,631.6c3.4,0,6.6-0.7,9.7-2.1c4.3-1.9,7.8-5,10.3-8.7
			h-40.1C367.3,627.4,374.8,631.6,383,631.6z"/>
		<path fill="#A4CF5E" d="M616.3,385.3c-2.3-6-6.8-10.8-12.7-13.4c-3.1-1.4-6.4-2.1-9.7-2.1c-9.6,0-18.2,5.6-22.1,14.3l-72,161.7
			c-0.2,0.5-0.8,0.9-1.4,0.9s-1.1-0.3-1.4-0.9l-72-161.7c-3.9-8.7-12.5-14.3-22.1-14.3c-3.4,0-6.6,0.7-9.7,2.1
			c-12.1,5.4-17.6,19.7-12.2,31.8l95.1,213.6c0.5,1.2,1.2,2.4,1.9,3.5c4.4,6.6,11.9,10.7,20,10.8l0.3,0l0.3,0
			c8.2-0.1,15.6-4.2,20-10.8c0.7-1.1,1.4-2.3,1.9-3.5l95.1-213.6C618.4,397.9,618.6,391.3,616.3,385.3z"/>
		<path opacity="0.3" fill="#754C29" d="M498.1,631.6l0.3,0l0.3,0c8.2-0.1,15.6-4.2,20-10.8h-40.7
			C482.5,627.4,490,631.5,498.1,631.6z"/>
		<path opacity="0.5" fill="#F6F0BC" d="M782.6,538.4c0,36.4-22.4,56.4-50,56.4s-50-20-50-56.4c0-36.4,22.4-75.5,50-75.5
			S782.6,502,782.6,538.4z"/>
		<path fill="#8A6A44" d="M772.6,546.7c0,29.1-17.9,45.1-40,45.1c-22.1,0-40-16-40-45.1c0-29.1,17.9-60.4,40-60.4
			C754.6,486.3,772.6,517.5,772.6,546.7z"/>
		<path opacity="0.3" fill="#754C29" d="M182.4,629.5c3.1,1.4,6.4,2.1,9.7,2.1c8.2,0,15.7-4.1,20.1-10.8h-40.1
			C174.7,624.6,178.2,627.6,182.4,629.5z"/>
	</g>
</g>
<g id="Layer_2">
</g>
</svg>
