<?xml version="1.0" encoding="utf-8"?>
<!-- Generator: Adobe Illustrator 18.1.1, SVG Export Plug-In . SVG Version: 6.00 Build 0)  -->
<!DOCTYPE svg PUBLIC "-//W3C//DTD SVG 1.1//EN" "http://www.w3.org/Graphics/SVG/1.1/DTD/svg11.dtd">
<svg version="1.1" xmlns="http://www.w3.org/2000/svg" xmlns:xlink="http://www.w3.org/1999/xlink" x="0px" y="0px"
	 viewBox="0 0 1000 1000" enable-background="new 0 0 1000 1000" xml:space="preserve">
<g id="Layer_2" display="none">
	<g display="inline">
		<path fill="#BADCF4" d="M616.2,205.9c-21.6,0-36.1,6.4-45.5,13.2V113.6c0-3.3-2.7-6-6-6h-57.4c-3.3,0-6,2.7-6,6v305.5
			c0,3.3,2.7,6,6,6h57.4c3.3,0,6-2.7,6-6V306.3c0-21.2,12.4-34.9,31.7-34.9c19.2,0,29.7,12.2,29.7,34.5v113.2c0,3.3,2.7,6,6,6h57.4
			c3.3,0,6-2.7,6-6V294.9C701.7,240.8,668.1,205.9,616.2,205.9z"/>
		<path fill="#BADCF4" d="M462.4,119h-66.1c-2.6,0-4.9,1.7-5.7,4.2l-56.8,173.6l-57.2-173.6c-0.8-2.5-3.1-4.1-5.7-4.1H221
			c-2.6,0-4.9,1.7-5.7,4.2l-56.8,173.6l-57.2-173.6c-0.8-2.5-3.1-4.1-5.7-4.1H29.5c-2,0-3.8,0.9-4.9,2.5c-1.1,1.6-1.4,3.6-0.8,5.5
			l102.6,294.1c0.8,2.4,3.1,4,5.7,4h51.5c2.6,0,4.9-1.7,5.7-4.1l56.8-169.3L303,421.1c0.8,2.5,3.1,4.1,5.7,4.1h51.1
			c2.6,0,4.9-1.6,5.7-4L468.1,127c0.6-1.8,0.4-3.9-0.8-5.5C466.2,119.9,464.4,119,462.4,119z"/>
		<g>
			<path fill="#70C168" d="M60.5,718.7c0,0,131-278.8,179.8-278.8S301.2,540,301.2,540s25.9,87.6,102.1,87.6
				c96.7,0,158.4-157.3,158.4-157.3s41.1-143.2,89.9-143.2c48.8,0,175.2,178.3,175.2,178.3s112.7,155.4,112.7,213.3
				s-70.1,96-70.1,96S755.2,892.4,500,892.4s-342-64-342-64S60.5,769,60.5,718.7z"/>
			<path fill="#1CAD4B" d="M244.4,440.2c0,0,37.6,0.5,58.5,21.4c20.8,20.8,53.9,78.5,93.9,78.5s102.5-86.3,123.8-113.9
				c21.2-27.7,79.5-98.5,126.6-98.5c0,0-60.1,88.2-89.4,152.2c-28.3,61.7-70.3,147.9-154.5,147.9c0,0-85.3,8.4-102.1-87.6
				c-6.2-35.7-15-59.4-23.6-74.4C265.4,444.6,244.4,440.2,244.4,440.2z"/>
		</g>
		<polygon fill="#1CAD4B" points="772.3,549.7 783.2,447.8 809.8,481.8 		"/>
		<path fill="#BADCF4" d="M975.5,245.3c-1.1-1.7-3-2.7-5-2.7h-63.7c-2.5,0-4.7,1.5-5.6,3.9L860.4,353l-41.1-106.5
			c-0.9-2.3-3.1-3.9-5.6-3.9h-63.3c-2,0-3.9,1-5,2.7s-1.3,3.8-0.5,5.7l78.4,182.8l-50.9,116c-0.8,1.9-0.6,4,0.5,5.7s3,2.7,5.1,2.7
			h62.5c2.4,0,4.6-1.4,5.5-3.7L976.1,251C976.9,249.1,976.7,247,975.5,245.3z"/>
	</g>
</g>
<g id="Layer_3">
	<g>
		<path fill="#B9DCF4" d="M300.3,113.7h-62.9c-1.9,0-3.5,1.6-3.5,3.5v117.4H117.1V117.2c0-1.9-1.6-3.5-3.5-3.5H50.3
			c-1.9,0-3.5,1.6-3.5,3.5v305.5c0,1.9,1.6,3.5,3.5,3.5h63.3c1.9,0,3.5-1.6,3.5-3.5V297.6h116.8v125.2c0,1.9,1.6,3.5,3.5,3.5h62.9
			c1.9,0,3.5-1.6,3.5-3.5V117.2C303.8,115.3,302.2,113.7,300.3,113.7z"/>
		<path fill="#B9DCF4" d="M473.5,204c-68.2,0-115.8,46.6-115.8,113.4c0,33.1,11.4,61.5,33,82.3c20.9,20.1,50.3,31.1,82.8,31.1
			s61.9-11,82.8-31.1c21.6-20.7,33-49.2,33-82.3C589.3,250.6,541.6,204,473.5,204z M473.5,262.1c29.8,0,48.4,21.2,48.4,55.3
			c0,33.9-18.5,54.9-48.4,54.9s-48.4-21-48.4-54.9C425.1,283.3,443.6,262.1,473.5,262.1z"/>
		<g>
			<path fill="#6FC067" d="M52,712.6c0,0,131-278.8,179.8-278.8s60.9,100.1,60.9,100.1s25.9,87.6,102.1,87.6
				c96.7,0,158.4-157.3,158.4-157.3S594.4,321,643.1,321s175.2,178.3,175.2,178.3s112.7,155.4,112.7,213.3c0,57.9-70.1,96-70.1,96
				s-114.3,77.7-369.5,77.7s-342-64-342-64S52,762.9,52,712.6z"/>
			<path fill="#19AD4B" d="M236,434c0,0,37.6,0.5,58.5,21.4c20.8,20.8,53.9,78.5,93.9,78.5S490.8,447.6,512.1,420
				c21.2-27.7,79.5-98.5,126.6-98.5c0,0-60.1,88.2-89.4,152.2C521,535.3,479,621.5,394.8,621.5c0,0-85.3,8.4-102.1-87.6
				c-6.2-35.7-15-59.4-23.6-74.4C257,438.4,236,434,236,434z"/>
		</g>
		<path fill="#19AD4B" d="M685.4,424l-63.3-100c0,0,2.5-0.8,6.3-1.6c7.3-1.4,19.1-2.8,25.3,0.8L685.4,424z"/>
		<path fill="#B9DCF4" d="M952.6,209.6c-0.7-1-1.7-1.5-2.9-1.5h-65.4c-1.5,0-2.8,1-3.3,2.4l-38,111.5l-40.3-111.5
			c-0.5-1.4-1.8-2.3-3.3-2.3h-41.7c-1.5,0-2.8,0.9-3.3,2.3l-39.9,111.5l-38-111.4c-0.5-1.4-1.8-2.4-3.3-2.4h-65.4
			c-1.2,0-2.2,0.6-2.9,1.5c-0.7,0.9-0.8,2.2-0.4,3.2L685.4,424c0.5,1.4,1.8,2.2,3.3,2.2h47.4c1.5,0,2.8-0.9,3.3-2.3l39.2-103.3
			L817.8,424c0.5,1.4,1.8,2.3,3.3,2.3h47.4c1.4,0,2.7-0.9,3.3-2.2L953,212.9C953.4,211.8,953.2,210.6,952.6,209.6z"/>
		<path fill="#15783D" d="M629.4,335.4l9.5-14.4c0,0-8.8,0.5-16.7,3L629.4,335.4z"/>
	</g>
</g>
</svg>
