<?xml version="1.0" encoding="UTF-8" standalone="no"?>
<svg width="934px" height="912px" viewBox="0 0 934 912" version="1.1" xmlns="http://www.w3.org/2000/svg" xmlns:xlink="http://www.w3.org/1999/xlink" xmlns:sketch="http://www.bohemiancoding.com/sketch/ns">
    <!-- Generator: Sketch 3.3.2 (12043) - http://www.bohemiancoding.com/sketch -->
    <title>Matt Baird Has A Portfolio</title>
    <desc>Outputted using Sketch</desc>
    <defs></defs>
    <g id="Page-1" stroke="none" stroke-width="1" fill="none" fill-rule="evenodd" sketch:type="MSPage">
        <g id="logo" sketch:type="MSLayerGroup">
            <path d="M466.9,911.1 C464.8,911.1 462.7,910.6 460.8,909.7 L98,735 C94.2,733.2 91.4,729.7 90.4,725.5 L0.9,332.9 C7.77156117e-16,328.7 0.9,324.4 3.6,321.1 L254.7,6.2 C257.4,2.9 261.4,0.9 265.6,0.9 L668.3,0.9 C672.6,0.9 676.6,2.8 679.2,6.2 L930.3,321.1 C933,324.4 934,328.8 933,332.9 L843.4,725.5 C842.5,729.7 839.7,733.2 835.8,735 L473,909.7 C471.1,910.6 469,911.1 466.9,911.1 L466.9,911.1 Z" id="Shape" fill="#0C233F" sketch:type="MSShapeGroup"></path>
            <g id="text" transform="translate(148.000000, 334.000000)" fill="#FFFFFF" sketch:type="MSShapeGroup">
                <g id="Group">
                    <path d="M63.6,73.9 L63.6,42.7 L47.8,72.9 L35.3,72.9 L19.3,42.7 L19.3,73.9 L0.4,73.9 L0.4,1.1 L17.1,1.1 L41.2,45.5 L65.2,1.1 L81.9,1.1 L81.9,73.9 L63.6,73.9 L63.6,73.9 Z" id="Shape"></path>
                    <path d="M148.1,73.9 L143,62.2 L115,62.2 L109.9,73.9 L89.3,73.9 L121,1.1 L137,1.1 L168.7,73.9 L148.1,73.9 L148.1,73.9 Z M136.6,47.8 L128.8,30.1 L121.2,47.8 L136.6,47.8 L136.6,47.8 Z" id="Shape"></path>
                    <path d="M197.8,17.6 L197.8,73.9 L178.9,73.9 L178.9,17.6 L156.1,17.6 L156.1,0.9 L220.4,0.9 L220.4,17.6 L197.8,17.6 L197.8,17.6 Z" id="Shape"></path>
                    <path d="M269,17.6 L269,73.9 L250.1,73.9 L250.1,17.6 L227.3,17.6 L227.3,0.9 L291.6,0.9 L291.6,17.6 L269,17.6 L269,17.6 Z" id="Shape"></path>
                    <path d="M353.8,0.9 C367.4,0.9 377.2,7.5 377.2,21.7 C377.2,28.1 374.3,32.4 371.2,35.3 C375.9,37.6 380,43.3 380,51.9 C380,66.1 370.3,73.9 355.7,73.9 L321.6,73.9 L321.6,1.1 L353.9,1.1 L353.9,0.9 L353.8,0.9 Z M340.1,28.7 L351.4,28.7 C355.5,28.7 358,26.9 358,23.2 C358,19.1 355.5,17.6 351.6,17.6 L340.1,17.6 L340.1,28.7 L340.1,28.7 Z M340.1,57.2 L353.5,57.2 C358.2,57.2 360.9,55.3 360.9,51 C360.9,46.7 358.2,44.6 353.5,44.6 L340.3,44.6 L340.3,57.3 L340.1,57.3 L340.1,57.2 Z" id="Shape"></path>
                    <path d="M440,73.9 L434.9,62.2 L406.9,62.2 L401.8,73.9 L381.2,73.9 L412.9,1.1 L428.9,1.1 L460.6,73.9 L440,73.9 L440,73.9 Z M428.5,47.8 L420.7,30.1 L413.1,47.8 L428.5,47.8 L428.5,47.8 Z" id="Shape"></path>
                    <path d="M467.5,73.9 L467.5,1.1 L486.4,1.1 L486.4,73.9 L467.5,73.9 L467.5,73.9 Z" id="Shape"></path>
                    <path d="M525.9,49.6 L517.9,49.6 L517.9,73.9 L499,73.9 L499,1.1 L532,1.1 C546.8,1.1 556.3,10.1 556.3,25.4 C556.3,35.3 552.2,42.5 545.4,46.4 L560.2,74.1 L539,74.1 L525.9,49.6 L525.9,49.6 Z M529.8,32.8 C534.5,32.8 537.2,29.9 537.2,25.2 C537.2,20.5 534.5,17.6 529.8,17.6 L517.9,17.6 L517.9,32.8 L529.8,32.8 L529.8,32.8 Z" id="Shape"></path>
                    <path d="M600.3,0.9 C621.5,0.9 637.1,14.5 637.1,37.3 C637.1,60.1 621.5,73.7 600.3,73.7 L569.3,73.7 L569.3,0.9 L600.3,0.9 L600.3,0.9 Z M588.2,57.7 L600.5,57.7 C611.8,57.7 618.6,51.3 618.6,37.4 C618.6,23.6 611.8,17.1 600.5,17.1 L588.2,17.1 L588.2,57.7 L588.2,57.7 Z" id="Shape"></path>
                </g>
                <g id="Group" transform="translate(0.000000, 101.000000)">
                    <path d="M34.2,52.7 L34.2,28.7 L7.3,28.7 L7.3,52.7 L0.9,52.7 L0.9,1.3 L7.3,1.3 L7.3,23.3 L34.2,23.3 L34.2,1.3 L40.4,1.3 L40.4,52.7 L34.2,52.7 L34.2,52.7 Z" id="Shape"></path>
                    <path d="M89.3,52.7 L83.8,39.7 L59.8,39.7 L54.3,52.7 L47.5,52.7 L69.1,1.3 L74.6,1.3 L96.2,52.7 L89.3,52.7 L89.3,52.7 Z M81.5,34.2 L72,11 L62.5,34.2 L81.5,34.2 L81.5,34.2 Z" id="Shape"></path>
                    <path d="M136.8,15 L130.4,15.4 C130,9.6 125.7,6.2 119.1,6.2 C111.7,6.2 108,10.1 108,15.2 C108,21.2 112.9,22.6 120.5,24.4 C131.6,26.9 138.2,29.9 138.2,38.8 C138.2,49.1 130,53.6 119.9,53.6 C109.2,53.6 100.8,48.1 100.4,38.6 L106.8,38.2 C107.2,44.2 112.8,48.1 120,48.1 C126.8,48.1 131.9,45.6 131.9,39.1 C131.9,33.1 126.8,31.5 118.3,29.6 C109.1,27.5 101.6,25.1 101.6,15.2 C101.6,7.4 107.2,0.6 118.9,0.6 C129,0.6 136.4,5.8 136.8,15 L136.8,15 Z" id="Shape"></path>
                    <path d="M200.7,52.7 L195.2,39.7 L171.4,39.7 L165.9,52.7 L159.1,52.7 L180.7,1.3 L186.2,1.3 L207.8,52.7 L200.7,52.7 L200.7,52.7 Z M192.9,34.2 L183.4,11 L173.9,34.2 L192.9,34.2 L192.9,34.2 Z" id="Shape"></path>
                    <path d="M251.3,1.3 C260.3,1.3 267.1,6.6 267.1,16.9 C267.1,27.2 260.3,32.5 251.3,32.5 L237.5,32.5 L237.5,52.8 L231.1,52.8 L231.1,1.4 L251.3,1.3 L251.3,1.3 Z M237.5,26.8 L250.5,26.8 C256,26.8 260.6,23.5 260.6,16.9 C260.6,10.1 255.9,6.8 250.5,6.8 L237.5,6.8 L237.5,26.8 L237.5,26.8 Z" id="Shape"></path>
                    <path d="M325.3,27 C325.3,43.4 314,53.5 299.4,53.5 C284.8,53.5 273.5,43.4 273.5,27 C273.5,10.6 284.8,0.5 299.4,0.5 C314,0.6 325.3,10.7 325.3,27 L325.3,27 Z M280,27 C280,40 288.6,47.8 299.5,47.8 C310.4,47.8 319,40 319,27 C319,13.8 310.6,6.2 299.5,6.2 C288.3,6.2 280,13.8 280,27 L280,27 Z" id="Shape"></path>
                    <path d="M355.3,32.1 L341.9,32.1 L341.9,52.7 L335.5,52.7 L335.5,1.3 L355.4,1.3 C364.4,1.3 371.2,6.6 371.2,16.7 C371.2,24.3 367.5,29.2 361.9,31.1 L374,52.7 L367,52.7 L355.3,32.1 L355.3,32.1 Z M354.5,26.5 C360,26.5 364.6,23.4 364.6,16.6 C364.6,9.8 359.9,6.7 354.5,6.7 L341.6,6.7 L341.6,26.4 L354.5,26.4 L354.5,26.5 L354.5,26.5 Z" id="Shape"></path>
                    <path d="M402.1,6.8 L402.1,52.8 L395.7,52.8 L395.7,6.8 L376.6,6.8 L376.6,1.2 L421.2,1.2 L421.2,6.8 L402.1,6.8 L402.1,6.8 Z" id="Shape"></path>
                    <path d="M435,6.8 L435,23.7 L456.2,23.7 L456.2,29.3 L435,29.3 L435,52.9 L428.6,52.9 L428.6,1.5 L460.5,1.5 L460.5,7.1 L435,7.1 L435,6.8 L435,6.8 Z" id="Shape"></path>
                    <path d="M518.1,27 C518.1,43.4 506.8,53.5 492.2,53.5 C477.6,53.5 466.3,43.4 466.3,27 C466.3,10.6 477.6,0.5 492.2,0.5 C506.8,0.6 518.1,10.7 518.1,27 L518.1,27 Z M472.7,27 C472.7,40 481.3,47.8 492.2,47.8 C503.1,47.8 511.7,40 511.7,27 C511.7,13.8 503.3,6.2 492.2,6.2 C481.1,6.2 472.7,13.8 472.7,27 L472.7,27 Z" id="Shape"></path>
                    <path d="M560.4,47.1 L560.4,52.7 L528.3,52.7 L528.3,1.3 L534.7,1.3 L534.7,47.3 L560.4,47.3 L560.4,47.1 L560.4,47.1 Z" id="Shape"></path>
                    <path d="M569,52.7 L569,1.3 L575.4,1.3 L575.4,52.7 L569,52.7 L569,52.7 Z" id="Shape"></path>
                    <path d="M637.1,27 C637.1,43.4 625.8,53.5 611.2,53.5 C596.6,53.5 585.3,43.4 585.3,27 C585.3,10.6 596.6,0.5 611.2,0.5 C625.8,0.6 637.1,10.7 637.1,27 L637.1,27 Z M591.7,27 C591.7,40 600.3,47.8 611.2,47.8 C622.1,47.8 630.7,40 630.7,27 C630.7,13.8 622.3,6.2 611.2,6.2 C600.1,6.2 591.7,13.8 591.7,27 L591.7,27 Z" id="Shape"></path>
                </g>
            </g>
        </g>
    </g>
</svg>
