<?xml version="1.0" encoding="utf-8"?>
<!-- Generator: Adobe Illustrator 18.1.1, SVG Export Plug-In . SVG Version: 6.00 Build 0)  -->
<!DOCTYPE svg PUBLIC "-//W3C//DTD SVG 1.1//EN" "http://www.w3.org/Graphics/SVG/1.1/DTD/svg11.dtd">
<svg version="1.1" id="rbs-logo" xmlns="http://www.w3.org/2000/svg" xmlns:xlink="http://www.w3.org/1999/xlink" x="0px" y="0px"
	 viewBox="0 0 1000 1000" enable-background="new 0 0 1000 1000" xml:space="preserve">
<g>
	<path id="bomb" fill="#302F2E" d="M499.8,530.4c-57.8-2.8-107-21.5-149.3-57.8C331,455.9,316,435.5,302.1,414
		c-3.2-5-6.8-7.2-13-7.4c-17.7-0.4-26.5-9.6-27.3-27.3c-0.2-4.6,0-9.4,0-14c0-6-1.8-11-6.8-14.8c-1-0.8-2-3.2-1.6-4.4
		c2.4-7.8-0.2-13.8-5.8-18.9c-5.2-4.8-6.4-10.4-4.8-16.9c4.8-16.9,9.4-33.7,14.8-50.4c5.6-16.7,13.8-31.9,24.9-45.6
		c14-17.5,28.3-34.7,42.5-52c7.8-9.4,18.1-15.9,29.3-20.3c13-5.2,25.7-11.2,37.5-18.9c7-4.6,14.6-8,22.1-12c8-4.2,16.5-4.4,24.7-1
		c6.8,2.6,13.8,3.4,21.1,2.8c52.4-4.6,103.3,2.4,153.7,16.3c4,1.2,8.2,3.2,11.2,6c17.3,15.7,34.9,30.9,51,47.4
		c27.9,28.5,49,61.4,57.8,100.9c4.4,19.5,7.8,39.3,11.6,59c0.6,3-0.4,5.2-2.8,6.8c-3,2-6,4.2-9.2,6c-4.4,2.4-7.4,5.6-8.6,10.4
		c-5.6,19.7-11.2,39.1-16.9,58.8c-1,3.2-1.8,6.6-3.4,9.4c-1.4,2.4-3.6,5-6.2,6.2c-16.1,6.4-29.5,17.1-41.9,28.7
		c-11.2,10.2-22.1,20.9-35.3,28.9c-27.1,16.5-56.8,26.1-88.1,29.9C521.3,529,509.4,529.6,499.8,530.4z M262.6,269.9
		c-1.4,2-3.6,3.8-4,5.8c-3,12.4-5.4,25.1-8.6,37.5c-1.8,7,1.8,11,6.6,16.1c0.8-3.6,2-6.2,2.2-9c1.6-15.3,3.2-30.5,4.8-45.8
		C263.8,273.1,263,271.5,262.6,269.9c0.4-1,0.8-1.8,1.2-2.6c-0.6-0.2-1.2-0.2-1.8-0.4C262.4,268.1,262.6,269.1,262.6,269.9z
		 M655.5,415.8c0,0.8,0.2,1.4,0.2,2.2c8.6,0,17.1,0,25.7,0c0,0.6,0,1,0,1.6c-8,0-16.1,0-23.9,0c0,0.2,0,0.6,0,0.8
		c14.8,1.6,29.5,3.2,44.3,4.8c0-0.6,0.2-1,0.2-1.6c-3.4-0.6-6.8-1.2-9.8-1.8c3.6-1.4,8.2,1.4,11.6-3.6c-2.8-0.4-5.6-0.8-8.4-1.2
		c1.4-1.2,3-1.6,4.4-2.4c4-1.8,6.2-4.4,6.2-9.2c0.2-33.9,1-67.8,1-101.7c0-7.8-1-15.7-2.4-23.3c-2.4-13.4-8.6-23.5-23.7-26.3
		c-11-2-22.3,3.2-25.9,13.8c-4,11.6-7,23.7-10.4,35.5c-1.8,6.4-3.8,12.6-3,19.7c1.6,17.9,2.6,35.7,4.4,53.4
		c0.8,8.8,2.8,17.9,4.6,26.5c1.2,5.6,4.8,9,10.6,10c5,0.8,10,1.6,14.4,2.2c-3.2,0-7-0.2-10.6,0C662.1,415.4,658.5,413.6,655.5,415.8
		z M714.5,273.5c0-1.8,0-3,0-4.4c-0.8-13.6-5.8-25.9-12.4-37.7c-19.3-34.7-49-56.6-85.7-70c-28.1-10.2-57.4-14.8-86.7-18.9
		c-14.6-2-29.5-3.4-44.1-5c-6-0.6-11.8-1.8-17.9-2.2c-8.8-0.8-16.5,4.4-19.1,12.2c6.6,0,13.4-0.2,20.1,0c9.8,0.4,13.4,3.4,15.3,13
		c0.8,4.2,3,6,7,6.4c9.8,0.8,19.7,1.8,29.3,2.6c20.9,1.8,41.1,6.6,60.4,14.8c28.5,12.2,51.4,31.5,68.8,57c4.4,6.4,9.4,8.2,17.5,7.2
		c13.4-2,27.1-0.8,37.3,9.6C708.3,262.5,710.9,268.1,714.5,273.5z M316,286.6c0-5.6,0-11.4,0-17.1c0-2.8-0.4-5.6-0.6-8.4
		c-0.8-9.2-7-15-15.5-15c-11.6,0.2-23.3,10-25.1,21.5c-1,6-1.4,12.2-1.8,18.5c-1,14-2,27.9-3,41.9c-0.8,12.2-1.8,24.7-2.2,36.9
		c-0.4,7.4,2,10.2,9,11.2c7.8,1.2,15.9,1.6,23.9,2.6c3,0.4,4.6-0.8,5.2-3.8C311.4,345.6,316.8,316.5,316,286.6z M422.9,144.3
		c-2,0.4-3.4,0.6-4.8,1c-44.3,12.2-83.1,34.3-116.4,65.8c-8.4,7.8-17.1,15.7-22.9,25.9c-3,5.4-5.4,11-5.8,18.5c4-3,7.2-5.4,10.4-7.8
		c6.6-5.2,13.8-7,22.1-4.4c2.6,0.8,5.6,1.4,8.2,2.2c3.2,1.2,5.6,0.4,8.2-1.8c14.4-12.6,29.1-25.1,43.7-37.3
		c7.6-6.4,15.7-12.4,23.5-18.9c3.8-3.2,7.6-6.6,6.2-12.2c-1.4-5.6,1.8-8.6,5.8-10.6c3.6-2,7.6-3.2,11.4-5
		C419.1,156.9,422.5,152.1,422.9,144.3z M641.5,164.2c3.4,3,7,6.2,10.6,9.4c0.4-0.4,0.8-0.8,1.2-1.2c-3.6-4.8-7.4-9.8-11-14.6
		c-4,0.8-5-3-7-5c-4-3.6-7.8-7.4-11.2-11.4c-5.6-6.6-12.4-10.4-21.3-11.4c-7.6-0.8-15-3.2-22.5-4.8c-3.8-0.8-8.2-1-11.4-3
		s-5.6-2.6-8.8-1c-0.6,0.4-1.6-0.2-2.4-0.2c-15.7-0.8-31.3-1.6-47-2.2c-15.3-0.8-30.7-1.6-46-2.2c-5.6-0.2-11.4-2-17.3,1.6
		c1.6,2.6,3.2,5,4.4,7.4c2.4,4.4,6,6.2,10.8,6.8c28.1,2.8,56,5.6,84.1,8.6c21.3,2.2,42.3,4.8,62.6,12.6c9.2,3.6,18.5,6.8,27.7,10
		C638.5,164.2,639.9,164,641.5,164.2z M429.6,130.8c-5.2-4-5.6-4-10.4-0.6c-1.8,1.2-3.4,2.6-5.2,3.8c-7.8,4.8-16.3,5.4-24.5,2.4
		c-4.6-1.8-8.6-1.6-13,0.2c-9,4-18.1,7.8-26.9,12c-12,5.4-21.7,13.6-28.5,25.1c-2.2,3.8-4.6,7.2-7,10.8c-0.6,1-1.4,2-2.2,2.6
		c-3.4,2-5,5.2-4.2,9.8c1-1.6,1.8-3,2.4-3.8c1.6-0.2,2.8,0,3.6-0.6c3.6-2.2,7-4.4,10.4-7c29.7-22.1,62.2-38.1,98.1-47.4
		C426.2,137.3,428.8,135.5,429.6,130.8z M724.7,280.5c-4.2,2.4-4.6,5-4.6,8c0.4,18.1,0.8,36.1,1.4,54.2c0.2,3.8,1,7.4,1.6,11.6
		c4.2-1.2,7.4-2.4,10.8-3.2c3-0.8,3.8-2.4,3.4-5.4c-3.2-18.9-6.2-37.7-9.4-56.6C727.4,286.2,725.9,283.6,724.7,280.5z M443.2,166.4
		c-3.2,0.2-6.6,0.4-9.8,0.6c-2.4,0.2-4-0.4-5-3c-1.2-3-3.6-4.2-6.8-2.4c-4,2-8,3.8-12,6c-1.4,0.6-2.6,1.8-4,3
		c16.7,8.2,52.8-0.8,65-15.5C457.7,149.5,447.6,152.9,443.2,166.4z M468.1,164.4c-3.4,3.2-6.8,5-5.4,9.4c3,10,5.8,20.1,9,30.1
		c0.6,2.2,1.6,4.4,5,3.4c3.2-1,2.8-3,2.2-5.4c-2.6-10.4-5-20.7-7.8-31.1C470.7,168.8,469.3,167,468.1,164.4z M439.6,176.6
		c-0.4,0.2-1,0.2-1.4,0.4c-0.2,1.4-0.6,3-0.4,4.4c1,6.6,2.2,13,3.4,19.7c1,4.8,1.8,9.8,3,14.6c0.2,1.2,1.8,2,2.8,3
		c0.8-1.2,1.6-2.6,2.4-3.8c0.2-0.4,0-1-0.2-1.4c-2.2-10.8-4.4-21.9-6.8-32.7C441.8,179.2,440.4,178,439.6,176.6z M419.5,178.4
		c-0.6,0-1.2,0.2-1.8,0.2c-0.2,1.6-0.8,3.4-0.6,5c1.8,10.2,3.6,20.5,5.6,30.5c0.4,1.6,2.4,4,3.6,3.8c2.8-0.2,1.8-3,1.6-4.8
		c-2-10.2-3.8-20.7-5.8-30.9C421.7,180.8,420.3,179.6,419.5,178.4z M461.9,214.9c3.2-1.4,3.2-3.2,2.6-5.4
		c-2.8-10.8-5.6-21.9-8.4-32.9c-0.4-1.4-1.4-2.6-2-4c-0.4,0-0.8,0.2-1.2,0.2c-0.2,1.2-1,2.4-0.6,3.4
		C455.5,189,457.5,202.1,461.9,214.9z M405.5,175.8c-0.4,0.2-1,0.6-1.4,0.8c0,0.6-0.4,1.4-0.2,2c2.2,10.8,4.4,21.7,6.8,32.5
		c0.2,0.6,1.4,1,2,1.6c0.4-1.2,1.2-2.2,1.2-3.2c-1.6-9.4-3-19.1-5-28.5C408.5,179,406.7,177.4,405.5,175.8z M423.1,112.2
		c-2,4.2-3.6,7.6-5.2,11c0.6,0.4,1.2,0.8,1.8,1.2c1.4-2.2,2.8-4.6,4.4-6.8c0.4,0.4,0.8,0.8,1.2,1.2c0.8,5,4.2,1.8,6,2
		c1.6,1.8,2.8,3.4,4,4.8c6.4-5.8,5.2-9.4-5.2-14c-0.8,1.4-1.8,2.6-2.8,4.2C426,114.8,424.8,113.8,423.1,112.2z M458.3,170.6
		c-1,5.6,7.4,38.1,10.4,40.5C470.3,207.5,462.1,174.2,458.3,170.6z M435.6,152.1c-5.8,6-5.8,6-3.2,8.6c2.6-3.2,8-4.4,6-10.6
		c2.4-1.6,4.8-3.2,8-5.6c-1.6-1.6-2.8-2.8-3.8-3.6c-11.8,6-14.8,9.2-13,13.8C431.2,154.1,432.8,153.3,435.6,152.1z M416.5,115.2
		c-3.2,2.8-5.8,5-8.4,7.4c-3.8,3.6-3.8,5-1.2,9.2c1.4-2.4,2.8-4.8,4.2-7.4c0.8,1.2,1.4,2.2,2.6,4
		C414.9,123.4,420.1,120.4,416.5,115.2z M670,426.8c0,0.4,0,0.8-0.2,1.2c4.8,1.8,26.1,2.6,28.9,0C689.2,427.6,679.6,427.2,670,426.8
		z M268.6,376.5c0,0.6-0.2,1.4-0.2,2c11.6,1.2,23.1,2.4,34.7,3.6c0-0.6,0.2-1.2,0.2-1.8C291.7,379.1,280.1,377.9,268.6,376.5z
		 M435.6,135.9c8.6-7,9.6-9.6,4.6-14.4C439.4,126.6,432.4,128.8,435.6,135.9z M445.2,130c-0.4,0-1,0-1.4-0.2
		c-3.2,4.6-7.4,8.4-9.2,14c4-3,7.4-6.2,10.4-9.8C445.8,133.3,445.2,131.2,445.2,130z M301.5,385.9c0-0.6,0.2-1,0.2-1.6
		c-10.8-1-21.7-2.2-32.3-3.2c0,0.4-0.2,1-0.2,1.4C280.1,383.7,290.7,384.7,301.5,385.9z M270.2,384.5c-0.2,0.6-0.2,1.2-0.4,1.8
		c4.8,1.6,9.6,2.6,14.8,2.6c0-0.6,0.2-1,0.2-1.6C280.1,386.5,275.3,385.5,270.2,384.5z M395.5,131.6c0.8,0,1.4,0.2,2.2,0.2
		c1-2,3.4-4-1.2-6.8C396.1,127.4,395.7,129.4,395.5,131.6z M440,156.9c-2.8,2-5.6,3.6-7,7.4C438,162.2,440,160.1,440,156.9z
		 M400.9,133.3c0.4,0,0.8,0,1.2,0.2c2.4-4.6,2.4-4.6,0.4-8C401.9,128.2,401.3,130.6,400.9,133.3z M656.9,172
		c-0.4,0.2-0.8,0.4-1.2,0.6c-0.2,2.2,0.4,3.8,2.2,4.6c0.4-0.2,1-0.6,1.4-0.8C658.5,175,657.7,173.4,656.9,172z M716.3,310.6
		c1.4-3,1.2-4.4-2-3.8C714.7,307.8,715.3,309,716.3,310.6z M715.5,325.7c1.2-1.4,2-1.8,2-2.4c0-0.4-0.8-1.2-1-1.2
		c-0.6,0.2-1.4,0.6-1.4,1.2C714.7,323.9,715.1,324.7,715.5,325.7z"/>
	<path id="crown" fill="#302F2E" d="M713.1,101.6c-2.4-4.6-5.8-2.8-9-1.8c-4.4,1.4-8.6,3.2-13.8,5.2c1-5.4,1.6-9.8,2.6-15.5
		c-5.4,1.4-10,2.6-14.2,3.6c3-4.6,6.2-9.2,9-14c1-1.8,1.4-4.8,0.6-6.6c-2-4.4-11.4-6.8-14.8-3.6c-3.4,3-6.2,6.8-8.4,10.8
		c-2.2,3.8-5.4,2.2-8.4,2.8c-2.8,0.4-3.4-1.6-3.6-3.8c-0.4-4.4-1-9,2.6-13c-4-4-5-4.2-8.6-1.2c-2.2,1.8-4.6,3.6-7.8,6.2
		c-0.4-5.6-0.4-9.8-1-14c-0.2-1.6-1.2-3.8-2.4-4.4c-7.6-3-14.2,1.4-14.4,9.4c-0.2,6.4-2.4,11.8-6,17.1c-3.2,4.6-6,9.6-8.8,14.4
		c-1.4,2.6-2.4,5.4-0.4,8.6l0,0c5.4,10.8,20.7,26.1,30.1,33.5l0,0c1.4,1.2,2.8,2.4,4.4,3.4c10.2,6.4,21.1,9.8,32.3,2.6
		c13.2-8.6,26.7-17.3,39.7-26.3C717.3,112,716.9,109,713.1,101.6z M677.2,69.8c1.8,2.2,3.4,4.2,5,6.2c-2.2,1.8-2.8,5.8-6.6,3.8
		C672.8,78.5,673.2,75.9,677.2,69.8z M634.2,56.4c-3.4,6-5.2,6.4-9,3.4c0-0.6,0-1-0.2-1.6C627.8,57.6,630.4,57.2,634.2,56.4z
		 M634.4,133.7c-7.6-9-19.7-23.7-26.7-32.3c2.6-0.8,4.6,0.8,6.6,3c3,3.6,6.4,6.8,9.6,10.2c4.6,5,9.4,9.8,14,15
		C636.9,131,635.6,132.3,634.4,133.7z M656.3,143.3c-2.6-1-5.2-2.2-7.8-3.2c0.2-0.6,0.4-1,0.6-1.6c2.6,1,5.2,2,7.8,3
		C656.7,142.1,656.5,142.7,656.3,143.3z M685.2,128.6c-0.4-0.4-0.6-0.8-1-1.2c1.6-1.6,3.2-3.4,4.8-5c-7.4,4.8-15,9.4-22.1,14.6
		c-3.6,2.6-5.6,2-8.6-0.6c-13.8-12.4-27.7-24.7-41.7-36.7c-2.8-2.4-3.8-5-1.6-8.2c4.4-6.2,8.6-12.4,13-18.7c0.4,0.2,0.8,0.2,1.2,0.4
		c1,4,1.8,7.8,3,11.8c1.4,5,2.4,5.6,7.4,5.2c7.2-0.8,14.2-1.6,21.5-2.4c6.4-0.8,9,2,8.2,8.4c-0.6,4.6-1.6,9.2-2,13.8
		c-0.4,5.2,1.2,6.8,6.6,7c6.2,0.2,12.4,0.8,19.1,1.2c-0.4,1.2-0.8,1.8-1,2.6c0.4,0.4,0.8,0.8,1.4,1.2
		C690.4,124.2,687.8,126.4,685.2,128.6z M704.1,115.2c-2-2.2-3.4-3.6-5-5.4c2.4-2.4,4.4-5.4,7.2-2.8
		C709.9,110.2,704.7,111.6,704.1,115.2z"/>
	<g id="text">
		<path fill="#302F2E" d="M823.5,747.5c-0.6,1-1,2-1.6,3c-2.2,5-5.8,7.6-11.4,7.2c-16.3-1-32.7-2-49-3c-4-0.2-8-0.4-12-0.6
			c-0.4,0.6-0.8,1-1.2,1.6c1,0.4,2,0.8,3,1.4c4.6,2.2,5.8,5.8,5.8,11c-0.4,16.7-0.2,33.5,0,50.2c0,7.8,1.4,9.4,9,10.4
			c5.2,0.6,10.2,1,15.5,1.4c9,0.8,12,4,12.6,13c0.2,5.8,0.4,11.6,0.4,17.5c0,17.3,0.2,34.5-0.2,51.6c-0.2,6.8-1,13.6-2.2,20.3
			c-2.4,11.4-8.4,16.5-20.1,16.3c-11-0.2-22.1-1.2-32.9-2.4c-38.9-4.4-78.1-8.8-117-13.4c-13.8-1.6-27.9-3-41.7-5
			c-12-1.8-16.3-7-16.3-19.3c0-50,0.2-99.9,0-149.9c0-6-1-12,7.8-13.6c-0.2-0.4-0.6-0.8-0.8-1.2c-1.4-0.2-2.6-0.4-4-0.6
			c-39.1-2.4-78.1-4.8-117.2-7c-23.9-1.4-47.8-2.8-71.6-4.2c-17.9-1-35.7-2.2-53.6-3.2c-32.7-2-65.4-3.8-98.1-5.8
			c-10-0.6-20.1-1.8-29.9-1.8c-9.2,0.2-16.3-2.4-20.5-11c0-4,0-8,0-12c1.4-0.2,2.8-0.8,4.4-0.6c33.3,1.6,66.8,3.2,100.1,5
			c29.9,1.6,59.8,3.2,89.7,4.8c28.1,1.4,56,2.8,84.1,4.4c17.5,1,34.9,2.4,52.6,3.4c12.6,0.6,25.3,1,38.1,1.4
			c8.6,0.4,17.5,0.6,26.1,1.2c10,0.8,15.7,6.4,15.9,16.5c0.4,23.1,0.4,46.2,0.4,69.2c0,21.7,0,43.3-0.2,65.2c0,9.8,0,19.7-0.2,29.5
			c0,1.2-0.6,2.4-1.2,4c4,0.4,8.2,0.8,12.4,1.4c24.5,2.6,48.8,5,73.2,7.8c16.5,1.8,32.9,4,49.4,5.8c12.8,1.4,25.7,2.2,38.3,3.2
			c2.6,0.2,5.4-0.4,7.8-1.4c3.2-1.4,5.2-3.8,5.2-7.8c0-15.5,0-30.7,0-46.2c0-8-1.4-9.6-9.2-10.8c-5-0.8-10-1.2-14.8-1.6
			c-9.4-0.4-12-2.4-13.2-12c-0.6-3.8-0.4-7.6-0.4-11.4c0-22.5,0.2-45.1,0.2-67.6c0-2,0-4,0-6.2c-2.2,0-4,0-6.4,0
			c-0.4,7.2-1,14.4-1,21.7c0.2,38.7,0.4,77.5,0.8,116.2c0,4.6,0,9.2,0,13.8c-15.5,3.6-23.1-6-23.5-17.9c-0.4-8.8-0.4-17.7-0.4-26.5
			c-0.2-10.2-0.6-20.5-0.4-30.5c0.2-19.3,0.6-38.7,0.6-58c0-5-0.4-10-0.6-15c0-1.8,0.2-3.4,0.4-5.2c-9-1.2-18.3-2.8-27.5-3.8
			c-5.8-0.6-11.6-0.2-17.5-0.4c-6.4-0.4-13-0.6-19.5-1.4c-8.8-1-12.6-5.4-12.8-14.2c0-4.6,0-9.2,0-14.4c7.2,0.8,13.4,1.8,19.7,2.2
			c21.5,1.4,43.1,2.2,64.6,3.6c15.9,1,31.7,2.6,47.4,3.6c21.7,1.4,43.3,2.4,65,3.6C823.5,737.5,823.5,742.5,823.5,747.5z"/>
		<path fill="#302F2E" d="M823.5,700.3c-3.4,0-6.6,0-10-0.2c-3.6-0.2-6.4-2.2-7.8-5.4c-1.4-3.8-2.8-8-3-12
			c-0.4-15.7-0.4-31.5-0.6-47.2c0-1.4,0-2.8-0.8-4.4c-2.2,6.2-6,12-6,18.9c0,3.8,0.2,7.6-0.2,11.4c-0.8,7.8-6.6,11.8-13,9.6
			c-3-1-4.2-3-4.6-6.2c-1.4-10.2-3.4-20.5-5.2-30.5c-0.2-1-0.8-2-2-3c0,21.9,0,43.7,0,65.6c-11.2,2.4-17.9-1.6-20.5-11.8
			c-0.6-2-1-4.2-1-6.4c0-25.9,0-51.8,0-77.9c2.8-1,5.2-2.2,7.8-3.2c0-0.2,0-0.6,0-0.8c-5.6-0.8-11.4-1.6-17.7-2.4c0,2.4,0,4.2,0,6
			c0,14.4,0.2,28.7,0.2,43.1c0,11.4-0.2,22.7-0.4,34.1c0,2.6-0.4,5.4-1,8c-1.4,6.8-3.8,9.4-10.8,9.2c-14.2-0.4-28.3-1-42.5-2
			c-7.4-0.6-10.8-4.6-12-12c-0.2-1.8-0.6-3.6-0.6-5.4c0-25.7,0-51.4,0-77.5c2-0.4,3.8-0.8,5.6-1.2c0-0.2,0-0.4,0-0.6
			c-4.8-1.2-9.4-2.4-14.6-3.6c0,12.2,0,24.1,0,35.7c0,15.7-0.2,31.3-0.4,47.2c0,1.6-0.2,3.4-0.4,5c-1,8-5,11.8-13,11.4
			c-13.2-0.6-26.7-1.4-39.9-2.2c-10.6-0.8-14.8-4.6-15.3-15.3c-0.4-13.8-0.2-27.7-0.2-41.5c0-10.4-0.2-21.1-0.2-31.5
			c0-1.6,0-3.2,0-5c1.8-0.4,3.2-0.6,4.6-0.8c0-0.2,0-0.6,0-0.8c-1.6-0.2-3-0.4-4.6-0.6c-15.5-0.2-31.1-0.2-46.6-0.6
			c-7.6-0.2-11.2-3.6-12.2-11.2c-0.4-4,0-8.2,0-13.2c2-0.4,4.2-1.2,6.4-1.2c13.6,0.2,27.5,0.6,41.1,0.8c21.5,0.4,42.9,1,64.4,1.4
			c13,0.2,26.3-0.2,39.3,0c8.4,0.2,16.9,1,25.3,1.2c8.4,0.2,16.9-0.4,25.3,0c9,0.6,18.3,1.8,27.3,3.2c2,0.4,4.2,2,5.8,3.6
			c7.2,7.6,12.6,16.3,16.1,26.3c2,6,4.2,11.8,7,17.7c0-2,0.4-4.2,0-6c-1.6-5.4,0.2-10.2,2.2-15c2.4-6,4.6-12.2,6.8-18.3
			c2.2-5.8,4-7.4,8.8-7.4c5.2,0,9.4,2.6,11.4,7.4c1,2.4,1.4,5,2.2,7.6C823.5,626.7,823.5,663.6,823.5,700.3z M693.2,594.8
			c0,2.6,0,5,0,7.2c0.2,12.4,0.6,25.1,0.8,37.5c0.2,7.4,0,15,0.4,22.5c0.2,4.8,2.4,9,8.2,8.4c3-0.2,6.2,0.2,9.4,0.6
			c3,0.2,4.2-1,4.2-4c0.2-14,0.6-27.9,1-41.9c0.2-6.4,0.4-13,0-19.5c-0.4-7.6-3.8-10.8-11.4-10.8
			C702.1,594.8,698.3,594.8,693.2,594.8z M615.8,593c0,8.4,0,16.5,0,24.5c0.2,13.2,0.4,26.3,0.8,39.5c0.2,7.2,1.8,9,8.8,9.8
			c3,0.2,6,0.4,9,0.6c3.8,0.2,4.6-0.8,4.2-4.8c-0.2-1.2-0.2-2.4-0.2-3.4c0.4-12,1-24.1,1.4-36.1c0.2-6.2,0.2-12.4,0-18.5
			c-0.2-6.4-3-10.8-7.8-11.2C626.8,592.8,621.6,593,615.8,593z"/>
		<path fill="#302F2E" d="M176.3,736.5c0.4-1.4,1-2.8,1.6-4.6c3.8,0,8-0.2,12,0c11.2,0.6,22.3,1.4,33.5,2.4c5.4,0.4,11,1,16.3,2.2
			c6.8,1.6,9.4,5.2,9.6,12.2c0.2,8.2,0.2,16.5,0.4,24.5c0,1.2-0.2,2.6-0.4,4.2c-6.4,1.2-12.4,0.8-18.1-2.4
			c-6.6-3.8-4.2-10.6-5.4-16.7c-4.4,0-8.4,0-13.2,0c2.8,4.2,5.2,7.8,7.6,11.2c19.9,28.1,30.7,59,29.9,93.7c-0.2,4.8,0,9.6-0.2,14.4
			c-0.6,8.2-4.2,12-12.2,11.8c-8.2-0.2-16.3-1-24.5-1.8c-6.8-0.6-13.4-2-20.3-2.8c-11.4-1.4-15-5-16.1-15.5c0-0.6-0.4-1.2-0.8-1.8
			c0-14,0-28.1,0-42.1c5.2,0.2,10.4-0.2,15.5,0.8c8,1.4,11.6,6,12.2,14.2c0.4,4.6,0.4,9.4,0.2,14c-0.2,2.4-1.2,4.6-1.8,6.8
			c4.6,0.4,9.6,1,14.8,1.2c5.8,0.4,6-0.2,6.2-6.2c0.4-19.3-5.6-36.9-15-53.4c-7.2-12.6-15.7-24.9-23.5-37.3
			c-1.4-2.2-2.8-4.6-4.2-7.2c2.8-0.6,5-1,7.2-1.4c0.2-0.4,0.2-0.6,0.4-1c-7-1.2-10.4-5.8-12-11.8
			C176.3,741.9,176.3,739.1,176.3,736.5z"/>
		<path fill="#302F2E" d="M176.3,562.9c1.2-0.8,2.4-2.4,3.6-2.4c15.7,0.4,31.3,0.8,47.2,1.4c3.4,0.2,7,0.6,10.4,1
			c8.8,1.4,13,5.6,13.8,14.4c0.4,4.8,0.2,9.6,0.2,14.4c0,8.4,0.4,17.1,0,25.5c-0.6,12-4.2,15.5-16.3,16.7c-0.8,0-1.6,0.4-3,0.6
			c2,3.8,3.6,7.6,5.8,10.8c0.6,1,2.8,1.6,4.2,1.6c23.5,1,47,1.8,70.6,2.8c0.4,0,0.6,0.2,1.2,0.4c0,5.2,0.6,10.4-0.2,15.7
			c-0.6,4.4-4.8,7-10.8,6.8c-14.2-0.6-28.3-1.4-42.5-2.2c-7.2-0.4-14.2-1.2-21.5-1.6c-8.6-0.4-15-5.6-20.5-11.2
			c-5.2-5.4-8.4-12.6-12.8-19.5c0,9.4,0,18.5,0,28.3c-7.6-0.2-15.3,1.6-20.7-5.2c-2.2-2.8-4.4-6.6-4.4-10.2
			c-0.6-14.4-0.6-29.1-0.8-43.5c0-6.4-0.2-12.6-0.4-19.1c0-2.8,0.4-5.2,3.8-5.2c-2.4-3-4.8-5.8-7.2-8.6
			C176.3,570.9,176.3,566.9,176.3,562.9z M206.8,617.1c2.4,0,5,0,7.4,0c6.4-0.2,11-4.8,11.4-11c0.2-5,0-10-0.2-15
			c0-3.4-1.8-5.8-5.2-6.4c-4.2-0.6-8.4-0.6-13.4-1C206.8,595.2,206.8,605.6,206.8,617.1z"/>
		<path fill="#302F2E" d="M672,871.9c1.2-6.6,1.2-12.8-1.4-18.3c-5.2-10.4-10.8-20.7-16.9-30.7c-5-8.4-10.8-16.5-16.1-24.9
			c-1.6-2.4-2.6-5.2-4.2-8.2c2.8-0.6,5-1.2,8.2-1.8c-1.6-0.8-2.2-1.4-2.8-1.6c-5.2-1.6-8-5.4-8.4-10.6c-0.4-5.6,0-11.2,0-17.5
			c6,0.4,11.2,0.8,16.5,1.2c11.8,1,23.7,1.8,35.5,2.8c9.2,1,13.6,5.2,14.2,14.4c0.6,10.4,0.4,21.1,0.4,31.5c0,1-1.4,3-2.2,3
			c-4.8,0.6-9.6,0.4-14-2.4c-3.6-2.4-5-6-5.2-10.2c-0.2-3-0.4-6-0.6-9.2c-4-0.2-7.6-0.4-12.4-0.6c5.2,8,10,14.8,14.2,22.3
			c5.4,9.2,10.4,18.7,15,28.3c5.4,11.2,6,23.5,5.6,35.7c-0.2,5.8-0.2,11.6-0.8,17.5c-0.8,6.8-4.2,10-10.8,9.8
			c-10.2-0.4-20.7-1.4-30.9-2.4c-4.4-0.4-8.6-1-12.8-1.8c-5.8-1-9.4-4.6-11-10.2c-0.4-1.2-0.8-2.6-0.8-4c0-17.9,0-35.7,0-53.8
			c12.8-4.4,23.5,2.4,24.3,16.1c0.4,6.2,0.4,12.4,0.2,18.5c0,1.8-1.2,3.6-2,5.6c2.6,0.4,5.8,0.8,9,1
			C665.1,872.1,668.4,871.9,672,871.9z"/>
		<path fill="#302F2E" d="M442.6,589.8c-7.8-5.6-7-13.2-6.6-20.9c0.2-3.4,3.4-3.8,5.6-3.6c14.4,0.6,28.9,1.6,43.3,2.6
			c5.2,0.4,10.6,0.8,15.9,1.2c4.2,0.4,6.6,3,7.6,6.8c0.8,2.8,1.6,5.8,1.6,8.8c0.4,25.9,0.8,51.8,1,77.5c0,3.4-0.4,6.6-0.8,10
			c-0.8,7.6-4.6,11.8-12.2,11.6c-15.3-0.6-30.7-1.4-46-3c-9.2-1-12.2-5-12.4-14.4c-0.6-23.9-0.8-47.8-1.2-71.6
			C438.4,591.2,438.6,591.2,442.6,589.8z M464.3,590.2c-0.2,0.8-0.4,1.4-0.4,2c0,17.7-0.2,35.3-0.2,53c0,3,0.4,6,1.4,8.8
			c0.6,1.6,2.4,3.6,3.8,4c5.6,0.8,11.2,1,16.9,1.4c0-4.2,0-7.8,0-11.2c0.2-10.2,0.6-20.3,0.8-30.5c0.2-7,0.4-14.2,0.2-21.3
			c0-3.6-2.2-6-6-6.2C475.3,590,469.9,590.2,464.3,590.2z"/>
		<path fill="#302F2E" d="M320.6,588.4c1.6-0.4,2.8-0.6,4.4-1c-6.8-4.8-7-11.4-6.8-18.3c0.2-4.4,1.6-5.6,5.8-5.4
			c15.7,0.8,31.3,1.6,46.8,2.4c0.8,0,1.6,0.2,2.4,0.2c14.4,1.8,21.1,7.4,22.1,23.1c1.4,21.1,1,42.3,1.2,63.4c0,3.2-0.6,6.4-1.2,9.4
			c-2,9-7,13.6-16.3,14.4c-6,0.6-12,0.2-18.1-0.2c-9.2-0.6-18.7-1.2-27.9-2.4c-7.4-1-11.2-4.8-11.8-12.2c-0.8-10.6-1-21.3-1-32.1
			C320.4,616.1,320.6,602.4,320.6,588.4z M347.1,586.4c0,23.3,0,45.4,0,68c3.8,0,8.4,0,12.8,0c9-0.2,12-3.2,12.2-12
			c0.2-10.4,0.2-21.1,0-31.5c0-5-0.4-10-1-14.8c-0.4-3.6-2-7-6-7.6C359.3,587.4,353.7,587.2,347.1,586.4z"/>
		<path fill="#302F2E" d="M578.1,642.7c6.6,2.6,7.8,7.6,7.8,12.8c0,8,0,16.1-0.4,24.1c-0.2,4.8-2.8,7.6-7.8,7.4
			c-11.4-0.4-23.1-1.2-34.5-2.4c-4.8-0.4-8.4-5.6-8.4-11.4c-0.2-18.3-0.4-36.7-0.4-55c0-5.8,0-11.6,0-17.7c5.4,0,10.6,0,15.7,0
			c8.2,0.2,16.7,0.2,24.9,0.6c9.8,0.6,11.8,3.6,12.6,14.2c0.4,5.8-0.4,11.8-1,17.9C586.1,638.1,584.3,641.9,578.1,642.7z
			 M556.8,651.2c0,3.2,0,5.8,0,8.4c0,0.6-0.2,1.6,0.2,2c0.6,1,1.6,2.2,2.6,2.4c4.4,1,7-1,7.6-5.4c0.8-4.2-0.6-6-5.6-6.6
			C560.2,651.6,558.6,651.4,556.8,651.2z M551.8,625.1c-0.2,0.4-0.4,0.6-0.6,1c6.2,1,4.6,6,5.2,10.2c2-0.2,3.8-0.4,5.6-0.4
			c4.4-0.2,4-3.4,4.2-6.4c0.2-3.4-2.2-4.2-4.8-4.2C558,624.9,555,625.1,551.8,625.1z"/>
		<path fill="#302F2E" d="M290.3,619.7c-3.4,0-6,0-9.6,0c0.4,5,0.8,9.8,1,14.6c0.4,8.4,0.4,8.4-7.8,8c-1,0-2,0-3-0.2
			c-8.6-0.4-14-5.6-14.2-14.2c-0.2-13-0.2-26.1-0.2-39.1c0-6.8,0.4-13.6,0.2-20.5c-0.2-4,1.8-5.6,5.2-5.4c5,0.4,10,1.4,15.3,1.6
			c5.2,0.2,10.2-0.2,15.5-0.2c3.4,0,7,0.2,10.4,0.6c6.8,0.8,9.6,3.6,10,10.4c0.4,6.6,0.4,13.2,0.6,20.1c0.2,14.4,0.4,29.1,0.6,43.5
			c0,5.2-0.2,5.4-5.4,4.8c-1.6-0.2-3.4-0.4-5-0.4c-8.4-0.4-12.8-4.4-13.4-12.8C290.1,627.1,290.3,623.7,290.3,619.7z M289.9,601
			c2.6-14.2,1.6-15.7-9.6-14.6c-0.2,0-0.6,0.4-1,0.6c0.4,4.6,1,9.2,1.4,14C284.1,601,286.9,601,289.9,601z"/>
		<path fill="#302F2E" d="M594.5,789.4c6.2,0.6,11,0.6,15.7,1.6c6.4,1.4,10.4,5.8,11.2,12.6c0.6,6.4,1,13,1,19.5
			c0,10,0.2,20.1-0.8,30.1c-1,9.8,0,19.7,0.4,29.3c0.2,3.2,0,6.6,0,9.6c-12.4,3.4-21.9-1.8-23.1-13.6c-1.4-13.6-1.2-27.3-1.8-40.9
			c0-0.8,0-1.6,0-2.4c0.2-8.4,0.4-16.9-1.6-25.3C594.1,803.7,594.9,797.1,594.5,789.4z M599.9,832.8c0.2,0,0.2,0,0.4,0
			c0-2.4,0-4.8,0-7.2c-0.2,0-0.2,0-0.4,0C599.9,828,599.9,830.4,599.9,832.8z"/>
		<path fill="#302F2E" d="M401.9,594.6c6.6,0.6,12.2,0.6,17.7,1.6c5.4,1,9.2,4.8,9.8,10.6c0.6,4.4,1,9,0.8,13.4
			c-0.4,11-1.4,21.9-1.6,32.9c-0.2,6.8,0.6,13.6,0.8,20.5c0,1.6,0,3.2,0,6c-5.4-0.6-10.4-0.6-15.3-1.8c-4.2-1-7-4.6-8-8.8
			c-1-4.2-1.6-8.4-1.8-12.8c-0.4-6.8-0.4-13.6,0-20.5c0.4-9.4-0.4-18.5-2.2-27.7C401.3,604,401.9,599.8,401.9,594.6z"/>
		<path fill="#302F2E" d="M596.9,754.5c3.2,0,5.4,0,7.6,0c13.8-0.2,15.9,8.2,15.7,18.1c0,3.6-1.2,7.2-2.8,10.4
			c-3.8,7.2-13,7.6-17.7,0.6c-2.8-4.2-4.2-8.6-3-14C597.7,765.1,596.9,760.1,596.9,754.5z"/>
		<path fill="#302F2E" d="M403.5,566.1c5.6,0,10-0.4,14.2,0c6.2,0.6,9.6,4.2,9.8,10.6c0.2,3-0.2,6.4-1.2,9.2c-2,6.2-8,8.8-14.4,6.8
			c-5.8-1.8-9.2-7.4-8.4-13.4C403.9,575.3,403.5,571.1,403.5,566.1z"/>
		<path fill="#302F2E" d="M554,884.3c-12.6,1.4-19.1-3-21.3-14.4c-0.4-2.2-0.8-4.2-0.8-6.4c-0.2-4.6,0-9.4,0-14.4
			c3.2-1,6.4-2.2,9.6-3.2c0-0.4,0-0.8,0-1.2c-13.4-1.2-26.9-2.2-41.5-3.4c1.2,1.4,1.6,2,2,2c6.6,2.2,8.2,7,8.2,13.4
			c0,7.2,0.6,14.2,0.8,21.5c0,1-0.2,2-0.2,2.8c-13.6,3.4-20.3-3.4-23.3-14.2c-1.4-5.4-1.4-11.2-1.4-16.9
			c-0.2-12.6,0.2-25.3,0.2-37.9c0-11.2,0-22.3,0-33.3c2.6-0.4,4.8-0.8,7-1c-4.2-2.6-7.2-5.6-8.6-10.2c-2-6.6-0.8-13-0.6-20.3
			c5,0.6,9.2,1.2,13.6,1.4c11,0.6,22.1,0.8,33.3,1.8c5.8,0.4,11.4,2,17.1,3.4c1.6,0.4,3.2,2.8,3.8,4.6c4,11.2,4.6,23.1,4.2,34.9
			c-0.6,16.7-1.6,33.3-2,50.2c-0.2,11.8,0.2,23.7,0.2,35.5C554,880.5,554,882.3,554,884.3z M510.4,775.8c0,14.2,0,27.9,0,41.5
			c7.4,1.2,14.2,2.4,21.9,3.8c0-4.8,0-9,0-13c-0.2-7.8-0.2-15.7-0.8-23.5c-0.4-5-3.8-8.6-8-8.8S514.8,775.8,510.4,775.8z"/>
		<path fill="#302F2E" d="M401.5,771.4c-14-1.4-26.5-2.6-39.3-4c0,7.4,0,14.2,0,21.3c11,0.4,22.1,0.8,33.3,1.4
			c0,6.2,0.6,12.2-0.2,18.1c-0.8,6.6-4.8,9.6-12,9.6c-6.2,0-12.2-0.8-18.5-1.4c-2-0.2-4-0.4-7.4-0.6c6.8,4.8,3.8,10.8,4.6,16.1
			c0.6,3.4-0.8,8,1,10c1.8,2,6.4,1.4,9.8,1.8c9.2,0.8,18.7,1.6,28.9,2.4c-0.2,6.4,1,13.4-1.2,20.3c-1.6,4.8-5.8,6.2-10.6,6
			c-5.6-0.2-11.4-0.6-17.1-1.6c-8.2-1.2-16.3-3-24.3-4.4c-5.2-0.8-7-5.2-9-8.6c-1.8-3-2.2-7.4-2.2-11c-0.2-22.3-0.2-44.3-0.2-66.6
			c0-3.4,0-7,0-10.8c1.6-0.6,3.2-1,5.8-1.8c-10.4-5.2-9.4-14.4-8.8-23.3c0.2-3.2,1.4-4.4,4.8-4.2c9.4,0.6,18.7,1,28.1,1.6
			c6.8,0.4,13.6,0.6,20.5,1.4c8.6,1,13.2,5.6,14.2,14.2C401.9,761.5,401.5,766.4,401.5,771.4z"/>
		<path fill="#302F2E" d="M271.8,822.9c2.6,1,5.2,2.2,7.8,2.6c2.4,0.6,3.6,1.6,3.6,4c0,10.2,0,20.3,0,30.5
			c-14.2,3-24.5-3.6-25.1-18.1c-0.6-11.2-0.4-22.7-0.6-34.1c-0.2-14.4-0.4-28.9-0.6-43.3c0-0.6,0.2-1.2,0.4-2.2
			c1.8,0,3.4-0.2,6.6-0.2c-11.2-6.8-9.2-16.3-8-26.1c4.4,0.6,8.4,1.2,12.6,1.4c11,0.4,22.1,0.8,33.1,1.2c3.4,0.2,7,0.6,10.4,1.2
			c9.8,2.2,15.3,8,15.7,18.7c0.4,16.3,0.2,32.5,0,48.6c0,3.6-1.4,7.2-2.4,10.6c-1.4,4.6-5.6,6.4-9.8,7.6c-8,2.2-15.9,0.8-23.9-0.4
			c-6.4-1-12.6-2.4-19.1-3.6C272,822.1,272,822.5,271.8,822.9z M282.5,802.9c2.6,0.2,5.4,0.6,8,0.6c7.8-0.2,12-3,12.8-10.6
			c0.8-7.6,0.2-15.3-0.4-22.9c-0.2-2.2-2.8-5.2-4.8-5.8c-4.4-1.2-9.2-1.2-14-1.8C283.5,776.4,282.9,789.2,282.5,802.9z"/>
		<path fill="#302F2E" d="M405.3,742.3c9.8,0.6,19.3,1,28.5,1.6c8.4,0.6,16.7,1.2,24.9,2c1.6,0.2,3.4,0.4,5,0.6
			c14,2.4,19.7,11.8,15,26.3c-15.3-0.6-30.9-1.4-47-2c0,6.8,0,13.2,0,19.9c0,15.3,0.2,30.3,0.2,45.6c0,0.6,0,1.4,0,2
			c0.4,9.6,2.8,12.2,12.2,12.8c10.8,0.6,21.7,1.4,32.5,2c3.2,0.2,4.6,1.4,4.2,4.6c-0.6,4-0.4,8-1.4,11.8c-1.6,6.6-5,9.4-11.8,9.4
			c-7.8,0-15.7-0.6-23.5-1.2c-6.4-0.4-12.6-1-18.9-1.8c-3.2-0.4-6.2-1-9.2-1.8c-4-1.2-6.6-4.2-7.4-8.2c-1-6.4-2-12.8-2-19.5
			c-0.2-23.1,0-46.2,0-69.2c0-1.4,0-3,0-4.8c1.6-0.6,3.2-1,5-1.6C402.5,763.1,403.5,753.1,405.3,742.3z"/>
		<path fill="#302F2E" d="M467.3,799.5c0,8.8,0,17.1,0,25.1c0,2.2,1,3.4,3.2,3.6c2,0,4,0.4,7,0.6c0,4.4,0.6,8.8,0,13
			c-0.4,3.6-3,6-7,5.8c-9.4-0.6-18.7-1.4-27.9-2.2c-2.4-0.2-3.6-1.6-3.6-4c0-2.8-0.2-5.6,0-8.4c0.4-5.4,2.8-7.6,8.4-7.6
			c0.8,0,1.6,0,3,0c0-9.4,0-18.9,0-28.1c-9.6-2.2-12.4-7.4-9.4-18.1c3.6,0,7.2,0,10.8,0c5.4,0.2,11,0.4,16.5,0.6c4,0.2,7,1.8,8,5.6
			c1,4.4,1.2,9,1.8,14C474.3,799.5,471.3,799.5,467.3,799.5z"/>
	</g>
</g>
</svg>
