<?xml version="1.0" encoding="utf-8"?>
<!-- Generator: Adobe Illustrator 18.1.1, SVG Export Plug-In . SVG Version: 6.00 Build 0)  -->
<!DOCTYPE svg PUBLIC "-//W3C//DTD SVG 1.1//EN" "http://www.w3.org/Graphics/SVG/1.1/DTD/svg11.dtd">
<svg version="1.1" id="Layer_3" xmlns="http://www.w3.org/2000/svg" xmlns:xlink="http://www.w3.org/1999/xlink" x="0px" y="0px"
	 viewBox="0 0 1000 1000" enable-background="new 0 0 1000 1000" xml:space="preserve">
<g>
	<g>
		<path fill="#B9DCF4" d="M88.3,221.4c-21.1-4.9-25.6-7.7-25.6-15.6c0-8.9,6.8-14.2,18.2-14.2c11.9,0,19,6.3,19.2,17l0,3.1l36.3-1.8
			l-0.1-2.9c-0.8-28.5-22.8-46.9-56-46.9c-16.8,0-30.8,4.8-40.4,13.9c-8.7,8.3-13.5,20-13.5,32.9c0,29.7,22.4,37.8,49.5,44.6
			c18.8,4.7,27.2,8.2,27.2,16.8c0,8.9-6.6,13.5-19.6,13.5c-14.1,0-23.9-7.6-24.4-19l-0.1-3l-35.9,1.8l0,2.9
			c0.2,15.2,6.3,27.8,17.6,36.4c10.7,8.2,25.5,12.5,42.8,12.5c34.3,0,55.6-17.9,55.6-46.8C139.2,236.9,114.1,228,88.3,221.4z"/>
		<path fill="#B9DCF4" d="M204.9,204.3c-12.5,0-24,4.3-32.3,12c-7.7,7.2-12.1,16.8-12.1,26.4v2.9l33.9,1.4v-3.1
			c0-4.8,2.8-10,10.8-10c8.7,0,9.8,6.6,9.8,12.3v1l-14.7,0.8c-35.1,1.6-42.5,18.9-42.5,33c0,20.2,13.4,32.3,35.9,32.3
			c9.9,0,17.1-3.1,22.3-6.7v4.5h33v-64.1C249,219.5,233.4,204.3,204.9,204.3z M215.1,271.6v1c0,8.2-5.5,13.1-14.8,13.1
			c-8.5,0-8.5-4.2-8.5-6c0-1.9,0-6.8,11.5-7.3L215.1,271.6z"/>
		<path fill="#B9DCF4" d="M331.6,204.3c-11.5,0-18.9,3.5-23.6,7.3v-5.4h-32.4v104.9h33.9v-57.9c0-10.3,6-16.9,15.4-16.9
			c9.3,0,14.4,5.9,14.4,16.7v58.1h33.9v-63.5C373.3,221.3,356.9,204.3,331.6,204.3z"/>
		<path fill="#B9DCF4" d="M469.8,211.2c-6.5-4.4-15.3-6.9-24.9-6.9c-14.5,0-27.4,5.3-36.5,15c-9.3,9.9-14.2,23.5-14.2,39.5
			c0,32.1,20.8,54.5,50.7,54.5c10.3,0,19.7-2.9,26.5-8.1v6h32.2V156.5h-33.8V211.2z M449.5,283.2c-13.1,0-20.9-9.1-20.9-24.4
			c0-15.1,8-24.6,20.9-24.6c12.6,0,20.3,8.5,20.3,22.3v4.4C469.8,274.8,462.2,283.2,449.5,283.2z"/>
		<polygon fill="#B9DCF4" points="631.4,256.8 613.1,206.2 589.4,206.2 571.3,256.8 554,206.2 516.9,206.2 557.1,311.2 583.4,311.2 
			601.3,264.2 619.1,311.2 645.4,311.2 685.8,206.2 648.7,206.2 		"/>
		<path fill="#B9DCF4" d="M715.7,157c-10.8,0-19.7,8.9-19.7,19.8c0,11,8.6,19.7,19.7,19.7c10.9,0,19.8-8.8,19.8-19.7
			C735.6,165.8,726.8,157,715.7,157z"/>
		<rect x="698.7" y="206.2" fill="#B9DCF4" width="33.9" height="104.9"/>
		<path fill="#B9DCF4" d="M825.3,269.6c-1.3,8.6-7.4,13.5-16.7,13.5c-12,0-19.4-9.3-19.4-24.4c0-15.1,7.4-24.6,19.4-24.6
			c9.2,0,15.4,5.2,16.5,14l0.4,2.8l33.4-2.8l-0.5-3.2c-3.8-24.8-23.3-40.8-49.9-40.8c-15.5,0-28.8,5-38.4,14.4
			c-10,9.8-15.3,23.6-15.3,40.1c0,32.6,21.6,54.5,53.7,54.5c26.3,0,45.8-15.8,49.9-40.2l0.5-3.2l-33.2-3L825.3,269.6z"/>
		<path fill="#B9DCF4" d="M935.2,204.3c-10.4,0-17.5,3.1-22.1,6.4v-54.2h-33.9v154.7h33.9v-57.9c0-10.3,6-16.9,15.4-16.9
			c9.3,0,14.4,5.9,14.4,16.7v58.1h33.9v-63.5C976.9,221.3,960.5,204.3,935.2,204.3z"/>
	</g>
	<g>
		<path fill="#6FC067" d="M52,669.8c0,0,131-278.8,179.8-278.8s60.9,100.1,60.9,100.1s25.9,87.6,102.1,87.6
			c96.7,0,158.4-157.3,158.4-157.3s41.1-143.2,89.9-143.2s175.2,178.3,175.2,178.3S931.1,612,931.1,669.8c0,57.9-70.1,96-70.1,96
			s-114.3,77.7-369.5,77.7s-342-64-342-64S52,720.1,52,669.8z"/>
		<path fill="#19AD4B" d="M236,391.3c0,0,37.6,0.5,58.5,21.4c20.8,20.8,53.9,78.5,93.9,78.5s102.5-86.3,123.8-113.9
			c21.2-27.7,79.5-98.5,126.6-98.5c0,0-60.1,88.2-89.4,152.2C521,492.5,479,578.8,394.8,578.8c0,0-85.3,8.4-102.1-87.6
			c-6.2-35.7-15-59.4-23.6-74.4C257,395.7,236,391.3,236,391.3z"/>
	</g>
</g>
</svg>
