<svg xmlns="http://www.w3.org/2000/svg" viewBox="0 0 318.426 420.484"><path fill="#FFF" d="M317.53 211.484c-1.536-5.334-4.73-9.493-9.235-12.683-3.08-2.18-6.474-3.71-10.102-4.686-9.388-2.526-18.813-2.265-28.245-.235-8.778 1.888-16.605 5.727-23.39 11.603-3.292 2.85-6.44 5.866-9.663 8.794-.285.258-.518.774-1.195.358.166-.626.32-1.302.525-1.963 2.306-7.47 4.596-14.947 6.936-22.407 11.226-35.78 23.04-71.363 35.638-106.684.834-2.338 1.625-4.713 2.166-7.132 1.745-7.808 1.078-15.378-2.675-22.546-3.242-6.19-8.157-10.708-14.273-13.956-5.992-3.182-12.405-4.764-19.188-4.88-.963-.015-1.956.21-2.97-.268-.08-.486-.19-1-.25-1.518-.768-6.9-3.848-12.698-8.526-17.7-5.766-6.167-12.74-10.47-20.723-13.144-6.053-2.03-12.22-2.995-18.63-2.1-8.212 1.15-14.984 4.786-20.165 11.298-2.692 3.384-4.442 7.25-5.832 11.316-7.473 21.86-14.964 43.713-22.47 65.56-5.343 15.547-10.718 31.08-16.086 46.618-.313.907-.695 1.79-1.104 2.838-1.01-.928-1.114-2.03-1.416-2.995-4.098-13.053-8.23-26.098-12.21-39.188-3.88-12.75-7.514-25.575-10.6-38.546-1.07-4.493-1.878-9.05-3-13.53-3.514-14.024-15.08-22.455-29.85-21.777-6.492.297-12.567 2.258-18.225 5.45-6.796 3.833-12.382 8.94-16.243 15.788-3.19 5.656-4.59 11.72-3.87 18.212.176 1.585.448 3.16.723 5.062-1.076.22-1.93.402-2.787.565-1.22.232-2.463.375-3.664.682C10.024 72.013.942 85.44.095 99.68c-.27 4.554.035 9.056.954 13.525 1.145 5.57 2.185 11.163 3.383 16.72 3.632 16.85 7.26 33.702 11 50.528 3.95 17.78 8.037 35.53 12.035 53.3.27 1.2.42 2.455.42 3.684.005 13.695.046 27.388.494 41.08.346 10.577.816 21.143 1.557 31.7.634 9.05 1.497 18.072 2.81 27.047.796 5.454 1.79 10.876 3.437 16.148 2.865 9.173 6.278 18.137 10.462 26.796 3.448 7.14 7.336 14.02 12.167 20.332 3.038 3.97 6.43 7.594 10.345 10.727 4.114 3.29 8.727 5.402 13.92 6.313 4.29.753 8.585 1.426 12.94 1.686 4.792.285 9.576.793 14.37.915 15.56.395 31.12.528 46.67-.405 6.926-.415 13.818-1.053 20.66-2.237 6.612-1.145 12.56-3.73 17.87-7.845 3.382-2.623 6.57-5.458 9.455-8.612 2.82-3.083 5.644-6.177 8.228-9.454 9.967-12.64 19.663-25.494 28.307-39.086 7.49-11.776 14.71-23.722 22.077-35.577 2.913-4.69 5.502-9.54 7.71-14.604 1.1-2.524 2.342-4.988 3.553-7.462 6.096-12.46 12.436-24.787 19.582-36.686 4.905-8.168 10.092-16.128 16.698-23.072 1.845-1.94 3.307-4.185 4.505-6.584 2.727-5.464 3.53-11.152 1.823-17.078zm-17.126 11.23c-.596.878-1.28 1.713-2.01 2.483-4.672 4.922-8.63 10.39-12.33 16.054-7.744 11.85-14.51 24.255-20.846 36.895-3.704 7.387-7.203 14.877-10.8 22.317-.465.96-.914 1.93-1.462 2.842-9.445 15.688-18.77 31.456-29.052 46.616-5.237 7.722-10.854 15.188-16.36 22.724-4.198 5.746-8.63 11.31-13.497 16.513-2.494 2.666-5.146 5.157-8 7.44-3.19 2.554-6.74 4.34-10.775 4.946-4.477.674-8.973 1.306-13.483 1.668-12.86 1.034-25.75 1.226-38.65 1.1-8.716-.084-17.42-.49-26.107-1.16-3.713-.284-7.398-.943-11.092-1.452-2.256-.31-4.22-1.31-6.048-2.63-2.986-2.152-5.468-4.81-7.708-7.704-2.945-3.806-5.49-7.872-7.76-12.11-5.556-10.377-10.003-21.21-13.287-32.513-1.542-5.304-2.384-10.76-3.01-16.232-.79-6.886-1.438-13.79-2.036-20.696-.345-3.984-.48-7.986-.7-11.98-.9-16.253-1.155-32.523-1.263-48.796-.03-4.357.02-8.715-.038-13.07-.02-1.412-.12-2.854-.428-4.225-4.082-18.113-8.295-36.197-12.3-54.327-4.602-20.82-9.043-41.674-13.518-62.52-.615-2.864-1.067-5.766-1.518-8.662-.485-3.113-.283-6.223.504-9.26 1.813-6.996 6.428-11.288 13.226-13.353 2.934-.89 5.96-.992 8.982-.585 1.042.14 2.07.496 3.064.86 2.055.756 3.367 2.174 3.915 4.357.864 3.445 1.82 6.87 2.766 10.295 9.193 33.314 18.39 66.626 27.59 99.937.19.684.358 1.383.643 2.027.112.252.517.375.79.557-.486-2.06-1.027-4.108-1.45-6.18-3.323-16.28-6.618-32.565-9.933-48.847-2.89-14.192-5.78-28.385-8.698-42.57-2.758-13.403-5.554-26.798-8.332-40.196-.126-.61-.207-1.23-.358-1.832-1.018-4.064-.08-7.79 2.15-11.187 4.047-6.172 9.86-9.857 16.96-11.595 2.796-.685 5.615-.8 8.443-.085 3.82.964 6.423 3.313 7.883 6.93.43 1.064.763 2.188.983 3.316 2.852 14.582 6.85 28.87 10.998 43.118 9.242 31.743 19.59 63.132 30.246 94.423.2.584.426 1.158.675 1.832.96-.24.935-1.074 1.136-1.65 2.462-7.045 4.887-14.104 7.32-21.16 14.57-42.253 29.14-84.506 43.702-126.76 1.216-3.53 2.345-7.088 3.605-10.6.597-1.665 1.254-3.345 2.154-4.857 2.555-4.29 6.497-6.453 11.406-6.866 4.72-.398 9.172.707 13.465 2.602 3.945 1.742 7.54 4.018 10.513 7.153 1.275 1.343 2.416 2.855 3.387 4.433 1.46 2.372 1.718 4.938.97 7.69-3.172 11.666-6.83 23.183-10.56 34.677-11.434 35.246-23.58 70.25-35.757 105.244-.892 2.56-1.7 5.153-2.54 7.735.796-.343.858-1.177 1.135-1.847 2.308-5.584 4.584-11.18 6.894-16.764 13.692-33.087 27.385-66.175 41.098-99.254 1.293-3.118 2.736-6.174 4.073-9.274 1.155-2.678 3.16-4.455 5.76-5.646 2.462-1.128 5.06-1.616 7.75-1.726 4.993-.205 9.727.74 14.105 3.2 7.143 4.015 10.096 10.78 8.148 18.74-.42 1.72-1.02 3.404-1.618 5.075-17.652 49.37-33.722 99.258-48.758 149.482-.735 2.456-1.162 5.017-1.57 7.555-1.792 11.14-3.528 22.29-5.277 33.44-.398 2.54-.77 5.082-1.173 7.758.843-.018 1.023-.69 1.335-1.108 4.88-6.563 9.66-13.204 14.626-19.7 7.4-9.684 15.15-19.082 23.565-27.91 3.623-3.802 7.426-7.405 11.51-10.716 5.988-4.85 12.893-7.334 20.46-8.292 3.914-.495 7.794-.538 11.692.052 2.653.4 5.228 1.052 7.61 2.31 5.035 2.668 6.065 6.792 2.87 11.503z"/></svg>