<?xml version="1.0" encoding="utf-8"?>
<!-- Generator: Adobe Illustrator 18.1.1, SVG Export Plug-In . SVG Version: 6.00 Build 0)  -->
<!DOCTYPE svg PUBLIC "-//W3C//DTD SVG 1.1//EN" "http://www.w3.org/Graphics/SVG/1.1/DTD/svg11.dtd">
<svg version="1.1" xmlns="http://www.w3.org/2000/svg" xmlns:xlink="http://www.w3.org/1999/xlink" x="0px" y="0px"
	 viewBox="0 0 1000 1000" enable-background="new 0 0 1000 1000" xml:space="preserve">
<g id="Layer_2" display="none">
	<g display="inline">
		<path fill="#BADCF4" d="M616.2,205.9c-21.6,0-36.1,6.4-45.5,13.2V113.6c0-3.3-2.7-6-6-6h-57.4c-3.3,0-6,2.7-6,6v305.5
			c0,3.3,2.7,6,6,6h57.4c3.3,0,6-2.7,6-6V306.3c0-21.2,12.4-34.9,31.7-34.9c19.2,0,29.7,12.2,29.7,34.5v113.2c0,3.3,2.7,6,6,6h57.4
			c3.3,0,6-2.7,6-6V294.9C701.7,240.8,668.1,205.9,616.2,205.9z"/>
		<path fill="#BADCF4" d="M462.4,119h-66.1c-2.6,0-4.9,1.7-5.7,4.2l-56.8,173.6l-57.2-173.6c-0.8-2.5-3.1-4.1-5.7-4.1H221
			c-2.6,0-4.9,1.7-5.7,4.2l-56.8,173.6l-57.2-173.6c-0.8-2.5-3.1-4.1-5.7-4.1H29.5c-2,0-3.8,0.9-4.9,2.5c-1.1,1.6-1.4,3.6-0.8,5.5
			l102.6,294.1c0.8,2.4,3.1,4,5.7,4h51.5c2.6,0,4.9-1.7,5.7-4.1l56.8-169.3L303,421.1c0.8,2.5,3.1,4.1,5.7,4.1h51.1
			c2.6,0,4.9-1.6,5.7-4L468.1,127c0.6-1.8,0.4-3.9-0.8-5.5C466.2,119.9,464.4,119,462.4,119z"/>
		<g>
			<path fill="#70C168" d="M60.5,718.7c0,0,131-278.8,179.8-278.8S301.2,540,301.2,540s25.9,87.6,102.1,87.6
				c96.7,0,158.4-157.3,158.4-157.3s41.1-143.2,89.9-143.2c48.8,0,175.2,178.3,175.2,178.3s112.7,155.4,112.7,213.3
				s-70.1,96-70.1,96S755.2,892.4,500,892.4s-342-64-342-64S60.5,769,60.5,718.7z"/>
			<path fill="#1CAD4B" d="M244.4,440.2c0,0,37.6,0.5,58.5,21.4c20.8,20.8,53.9,78.5,93.9,78.5s102.5-86.3,123.8-113.9
				c21.2-27.7,79.5-98.5,126.6-98.5c0,0-60.1,88.2-89.4,152.2c-28.3,61.7-70.3,147.9-154.5,147.9c0,0-85.3,8.4-102.1-87.6
				c-6.2-35.7-15-59.4-23.6-74.4C265.4,444.6,244.4,440.2,244.4,440.2z"/>
		</g>
		<polygon fill="#1CAD4B" points="772.3,549.7 783.2,447.8 809.8,481.8 		"/>
		<path fill="#BADCF4" d="M975.5,245.3c-1.1-1.7-3-2.7-5-2.7h-63.7c-2.5,0-4.7,1.5-5.6,3.9L860.4,353l-41.1-106.5
			c-0.9-2.3-3.1-3.9-5.6-3.9h-63.3c-2,0-3.9,1-5,2.7s-1.3,3.8-0.5,5.7l78.4,182.8l-50.9,116c-0.8,1.9-0.6,4,0.5,5.7s3,2.7,5.1,2.7
			h62.5c2.4,0,4.6-1.4,5.5-3.7L976.1,251C976.9,249.1,976.7,247,975.5,245.3z"/>
	</g>
</g>
<g id="Layer_3">
	<g>
		<path fill="#B9DCF4" d="M457.2,118.3h-66.6c-1.5,0-2.9,1-3.3,2.4l-59.7,182.5l-60.1-182.6c-0.5-1.4-1.8-2.4-3.3-2.4h-50.4
			c-1.5,0-2.9,1-3.3,2.4l-59.7,182.5L90.6,120.7c-0.5-1.4-1.8-2.4-3.3-2.4H20.7c-1.1,0-2.2,0.5-2.9,1.5c-0.7,0.9-0.8,2.1-0.5,3.2
			l103.5,296.6c0.5,1.4,1.8,2.3,3.3,2.3h51.9c1.5,0,2.8-1,3.3-2.4l59.7-178l59.7,178c0.5,1.4,1.8,2.4,3.3,2.4h51.5
			c1.5,0,2.8-0.9,3.3-2.3L460.5,123c0.4-1.1,0.2-2.3-0.5-3.2C459.4,118.9,458.4,118.3,457.2,118.3z"/>
		<path fill="#B9DCF4" d="M612.3,206c-24.6,0-39.7,8.4-48.4,16.1V110.3c0-1.9-1.6-3.5-3.5-3.5h-57.9c-1.9,0-3.5,1.6-3.5,3.5v308.1
			c0,1.9,1.6,3.5,3.5,3.5h57.9c1.9,0,3.5-1.6,3.5-3.5V304.6c0-22.9,13.6-37.7,34.6-37.7c20.7,0,32.6,13.6,32.6,37.3v114.2
			c0,1.9,1.6,3.5,3.5,3.5h57.9c1.9,0,3.5-1.6,3.5-3.5V293.1c0-26.6-8.1-48.8-23.4-64.2C657.6,213.9,636.8,206,612.3,206z"/>
		<path fill="#B9DCF4" d="M856.5,206c-66.3,0-112.5,45.3-112.5,110.2c0,32.2,11.1,59.8,32.1,79.9c20.3,19.5,48.9,30.2,80.4,30.2
			s60.1-10.7,80.4-30.2c21-20.1,32.1-47.8,32.1-79.9C969,251.3,922.7,206,856.5,206z M856.5,262.5c28.9,0,46.9,20.5,46.9,53.6
			c0,32.8-18,53.2-46.9,53.2s-46.9-20.4-46.9-53.2C809.6,283.1,827.6,262.5,856.5,262.5z"/>
	</g>
	<g>
		<path fill="#6FC067" d="M60.4,718.7c0,0,131-278.8,179.8-278.8S301.1,540,301.1,540s25.9,87.6,102.1,87.6
			c96.7,0,158.4-157.3,158.4-157.3s41.1-143.2,89.9-143.2c48.8,0,175.2,178.3,175.2,178.3s112.7,155.4,112.7,213.3s-70.1,96-70.1,96
			s-114.3,77.7-369.5,77.7s-342-64-342-64S60.4,769,60.4,718.7z"/>
		<path fill="#19AD4B" d="M244.3,440.1c0,0,37.6,0.5,58.5,21.4c20.8,20.8,53.9,78.5,93.9,78.5s102.5-86.3,123.8-113.9
			c21.2-27.7,79.5-98.5,126.6-98.5c0,0-60.1,88.2-89.4,152.2c-28.3,61.7-70.3,147.9-154.5,147.9c0,0-85.3,8.4-102.1-87.6
			c-6.2-35.7-15-59.4-23.6-74.4C265.4,444.5,244.3,440.1,244.3,440.1z"/>
	</g>
</g>
</svg>
