<?xml version="1.0" encoding="utf-8"?>
<!-- Generator: Adobe Illustrator 18.1.1, SVG Export Plug-In . SVG Version: 6.00 Build 0)  -->
<!DOCTYPE svg PUBLIC "-//W3C//DTD SVG 1.1//EN" "http://www.w3.org/Graphics/SVG/1.1/DTD/svg11.dtd">
<svg version="1.1" id="Layer_1" xmlns="http://www.w3.org/2000/svg" xmlns:xlink="http://www.w3.org/1999/xlink" x="0px" y="0px"
	 viewBox="0 0 1000 342.2" enable-background="new 0 0 1000 342.2" xml:space="preserve">
<g>
	<path fill="#333333" d="M172.3,59.1L148,133.6h-18.8l-19.7-57.4l-19.9,57.4H70.7L46.6,59.1h-9.2V42.5h43.8v16.7H66.5l14.1,45.7
		l21.2-62.4h15.3l21.2,62.4l14.1-45.7h-14.8V42.5h43.8v16.7H172.3z"/>
	<path fill="#333333" d="M276.2,116.4h10.4v16.7h-40v-16.7h10.4V97.4h-40.6v19.1h10.5v16.7h-40.1v-16.7h10.4V59.1h-10.4V42.5h40.1
		v16.7h-10.5v21.2h40.6V59.1h-10.4V42.5h40v16.7h-10.4V116.4z"/>
	<path fill="#333333" d="M353.3,116.4h11.3v16.7h-42.9v-16.7H333v-12.5l-27.6-44.8h-13.6V42.5h45.6v16.7h-10.1L343,85l15.7-25.9h-10
		V42.5h45.6v16.7h-13.6l-27.5,44.8V116.4z"/>
	<path fill="#333333" d="M466.4,116.4h10.5v16.7h-40.2v-16.7h10.5V59.1h-10.5V42.5h40.2v16.7h-10.5V116.4z"/>
	<path fill="#333333" d="M654.2,59.1l-24.3,74.5h-18.8l-19.7-57.4l-19.9,57.4h-18.9l-24.1-74.5h-9.2V42.5h43.8v16.7h-14.8l14.1,45.7
		l21.2-62.4H599l21.2,62.4l14.1-45.7h-14.8V42.5h43.8v16.7H654.2z"/>
	<path fill="#333333" d="M757,133.1h-41.2v-16.7h10.9l-4.1-9.3h-37.4l-4,9.3h9.7v16.7h-38.6v-16.7h8.5L687,59.1h-12V42.5h38.1
		l33.8,74h10V133.1z M703.8,64.6L692.2,91h23.2L703.8,64.6z"/>
	<path fill="#333333" d="M856.1,59.1v74h-14.8l-47.7-55.4v38.8H804v16.7h-40v-16.7h10.4V59.1H764V42.5h23.6l49.3,58.1V59.1h-10.3
		V42.5h40v16.7H856.1z"/>
	<path fill="#333333" d="M959.2,74.7h-16.9V60.1H926v56.4h14.5v16.7h-48.2v-16.7h14.5V60.1h-16.3v14.7h-16.9V42.5h85.6V74.7z"/>
	<path fill="#333333" d="M113.3,221H98.6v-12.7H84.6V257h12.6v14.4H55.4V257H68v-48.7H53.9V221H39.3v-27.9h74V221z"/>
	<path fill="#333333" d="M199,257h9v14.4h-34.6V257h9v-16.5h-35.1V257h9.1v14.4h-34.7V257h9v-49.5h-9v-14.4h34.7v14.4h-9.1v18.3
		h35.1v-18.3h-9v-14.4H208v14.4h-9V257z"/>
	<path fill="#333333" d="M243.6,257h9.1v14.4h-34.8V257h9.1v-49.5h-9.1v-14.4h34.8v14.4h-9.1V257z"/>
	<path fill="#333333" d="M306.6,226.1c15.6,2.6,24.7,9.7,24.7,23.2c0,14.7-10.8,23.7-28.8,23.7c-11.1,0-18.9-3.5-24.1-8.8v7.1h-15.1
		v-25.9h15.3c6.7,8.1,11.5,12.6,22.9,12.6c7.5,0,12.4-3.1,12.4-7.8c0-3.6-2.2-7.6-10.8-9l-15-2.5c-15.7-2.5-23.4-10.7-23.4-23
		c0-15,11.3-24.3,29.4-24.3c9,0,16.7,2.3,22.1,7.6v-5.9h14.1v24h-15.2c-3.8-6-9.2-11.4-19.8-11.4c-8.4,0-12.8,3.3-12.8,9.1
		c0,5.6,4.4,8.1,12.1,9.3L306.6,226.1z"/>
	<path fill="#333333" d="M410,193.1c19.2,0,31.7,10.9,31.7,27.8c0,17.6-13.4,29.1-33.8,29.1h-11.9v7h10.3v14.4h-35.8V257h9v-49.5h-9
		v-14.4H410z M409.5,234.9c9.6,0,15.9-5.6,15.9-14.1c0-7.6-6.3-12.6-15.9-12.6h-13.4v26.6H409.5z"/>
	<path fill="#333333" d="M530.9,232.3c0,22.7-18.1,40.8-40.9,40.8c-22.9,0-41-18.1-41-40.8c0-22.7,18.1-40.8,41-40.8
		C512.8,191.5,530.9,209.6,530.9,232.3z M514.1,232.3c0-13.8-10.3-25.2-24.1-25.2c-13.9,0-24.2,11.4-24.2,25.2
		c0,13.8,10.3,25.2,24.2,25.2C503.8,257.5,514.1,246.1,514.1,232.3z"/>
	<path fill="#333333" d="M583.5,226.1c15.6,2.6,24.7,9.7,24.7,23.2c0,14.7-10.8,23.7-28.8,23.7c-11.1,0-18.9-3.5-24.1-8.8v7.1h-15.1
		v-25.9h15.3c6.7,8.1,11.5,12.6,22.9,12.6c7.5,0,12.4-3.1,12.4-7.8c0-3.6-2.2-7.6-10.8-9l-15-2.5c-15.7-2.5-23.4-10.7-23.4-23
		c0-15,11.3-24.3,29.4-24.3c9,0,16.7,2.3,22.1,7.6v-5.9h14.1v24h-15.2c-3.8-6-9.2-11.4-19.8-11.4c-8.4,0-12.8,3.3-12.8,9.1
		c0,5.6,4.4,8.1,12.1,9.3L583.5,226.1z"/>
	<path fill="#333333" d="M641.6,257h9.1v14.4h-34.8V257h9.1v-49.5h-9.1v-14.4h34.8v14.4h-9.1V257z"/>
	<path fill="#333333" d="M733.1,221h-14.6v-12.7h-14.1V257h12.6v14.4h-41.7V257h12.6v-48.7h-14.1V221h-14.6v-27.9h74V221z"/>
	<path fill="#333333" d="M767.2,257h9.1v14.4h-34.8V257h9.1v-49.5h-9.1v-14.4h34.8v14.4h-9.1V257z"/>
	<path fill="#333333" d="M864.6,232.3c0,22.7-18.1,40.8-40.9,40.8c-22.9,0-41-18.1-41-40.8c0-22.7,18.1-40.8,41-40.8
		C846.5,191.5,864.6,209.6,864.6,232.3z M847.8,232.3c0-13.8-10.3-25.2-24.1-25.2c-13.9,0-24.2,11.4-24.2,25.2
		c0,13.8,10.3,25.2,24.2,25.2C837.6,257.5,847.8,246.1,847.8,232.3z"/>
	<path fill="#333333" d="M950.7,207.5v63.9h-12.8l-41.2-47.9V257h9v14.4h-34.6V257h9v-49.5h-9v-14.4h20.4l42.6,50.2v-35.8h-8.9
		v-14.4h34.6v14.4H950.7z"/>
	<rect x="37.4" y="164.8" fill="#333333" width="925.1" height="8.1"/>
	<rect x="37.4" y="291.6" fill="#333333" width="925.1" height="8.1"/>
</g>
</svg>
