<?xml version="1.0" encoding="utf-8"?>
<!-- Generator: Adobe Illustrator 18.1.1, SVG Export Plug-In . SVG Version: 6.00 Build 0)  -->
<!DOCTYPE svg PUBLIC "-//W3C//DTD SVG 1.1//EN" "http://www.w3.org/Graphics/SVG/1.1/DTD/svg11.dtd">
<svg version="1.1" id="Layer_1" xmlns="http://www.w3.org/2000/svg" xmlns:xlink="http://www.w3.org/1999/xlink" x="0px" y="0px"
	 viewBox="0 0 421.2 193.7" enable-background="new 0 0 421.2 193.7" xml:space="preserve">
<path fill="#2B2B2A" d="M256.3,61.5c-0.1,0-0.2,0-0.2,0c-1.6,4.7-9.4,11.5-15,10.6c-2.3-0.4-3.7-2.8-4.4-5.8
	c19-10,23.4-24.8,9.7-25.8c-2.5-0.1-3.1,1.2-1.2,2.6c3.2,2.1,1,12.4-9,19.2c-0.2-8.7,2.1-16.2,6-19.5c1.2-1.1,1.5-2.3-0.6-2
	c-9.1,1.3-13.4,9-14.6,16.6c-0.3,2-0.4,3.8-0.3,5.6c-1.9,5.2-4.7,9.7-6.9,8.9c-2.1-0.7-1.8-12.8-0.7-20.2c0.7-5,1.4-8.8,2.2-12.1
	c3.6,0.5,6.9,0.7,9-0.8c4.4-3.1,1.6-9,1.6-9c-2.5,1-5.4,2-8.3,2.8c1.5-3.8,2.9-5.5,2.9-5.5s-4.8-4.8-10.4,0.5
	c-1.3,1.2-2.4,3.4-3.4,6.1c-0.5-0.1-1-0.1-1.5-0.2c-0.5-0.1-0.8-0.1-1.2,0c-0.2-1.6-1.4-2.9-4-4c-3.8-1.6-7.9-0.2-8.8,4.2
	c-0.6,3.2,0.6,6.5,4.2,7.5c2.5,0.6,5.7-0.7,7.3-3.5l2.9,0.3c-0.9,4.1-1.6,8.9-2,13.9c-0.3,3.7-0.4,7.7-0.1,11.4
	c-1.9,5.2-5.4,10.2-7.7,9.7c-2.4-0.4-3.3-7.2-1.8-14.9c1.5-7.7,4.7-13.1,4.7-13.1c-6-4-11.5-0.7-13.5,8.6c-0.4,2.1-0.7,4.1-0.9,6.1
	c-1,0.7-2.2,1.3-3.5,1.7c-1.3-6.7-7.7-11.2-12.8-13.9c-0.6-0.3-1.2-0.5-1.6-0.9c0,0,0-0.2,0.1-0.3c0.4-2.7,0.6-6.6-0.6-7.8
	c-1.6-1.6-8,2.3-8.5,5.4c-0.6,2.8,0.9,5.1,2.9,6.9c-0.7,5.6-3.1,13.7-5.3,18.1c0,0,0,0,0.1,0.1c0.5,1.4,2.1,1.6,3.2-0.8
	c2.3-4.8,4.7-9.4,6.5-14.3c3.1,2,5.7,5.3,5.6,9.9c-1.6,0.5-3.2,1.1-4.9,1.8c-5.8,2.7-7.9,8.4-3.9,11c5.3,3.2,17.9,0,19.5-10.8l0-0.2
	c1.2-0.4,2.3-0.9,3.4-1.5c0.3,7.2,3,12.5,6.9,13.5c5.2,1.2,10.1-3.3,13.2-9.2c0.8,4.1,2.4,7.2,4.7,8.1c4.5,1.8,9.6-2.6,12.6-8.6
	c1.6,4.9,5.1,8.1,8.8,8.7c9.2,1.8,19.1-5.5,21.5-12.2C258.9,62,257.7,61,256.3,61.5z M169.6,73.8c-1.7-0.8-1.3-3.8,1.3-4.8
	c1.3-0.5,2.9-0.9,4.7-1.2C174.1,73.2,171.4,74.6,169.6,73.8z"/>
<path fill="#2B2B2A" d="M393.2,64.3c-1.8,2.8-4.6,4.4-6.4,4.1c-3-0.6-5.7-6.6-6.8-9.7c-0.1-0.3-0.2-0.5-0.3-0.7
	c1.8-1.8,3.5-4.4,4.9-7.6c4.1-9.4,7.5-11,7.5-11s-6.8-9.5-11.9-2.8c-3,3.8-4.3,12.4-5.9,17.2c-1.5-0.3-3-0.2-4.1,0.4
	c-0.5,0.2-1,0.5-1.3,0.9l0-0.1c2.1-26,9.1-34.1,9.1-34.1s-6.6-7.8-11.7-1c-4,5.4-6.5,17.7-7.2,35.2c-1.7,2.6-3.9,4.8-6.4,5.9
	c0.9-2.3,1.6-4.7,1.8-6.9c1.8-14.6-6.2-18.9-11.1-16.1c-0.4,0.3-0.7,0.5-1,0.8l-1.1-0.1c-8.6-0.5-15.9,6.3-17.6,16.3
	c-1.6,2.2-3.5,3.9-5.8,4.9c0.6-1.7,0.9-3.4,1.1-5c2.7-21-6.7-23.3-12.3-20c-1.5,0.9-2.7,2.2-3.6,3.8c-7.4,1.7-14.2,9.6-15.2,18.5
	c-0.2,1.5-0.2,3-0.1,4.4c-1.9,5.2-4.8,9.7-7,8.9c-2.1-0.7-1.7-13.4-0.6-20.8c3.1-20.3,8.8-27,8.8-27s-6.9-7.9-11.8-1
	c-3,4.6-5.4,17.4-6.4,28.6c-0.8,10.3,0.4,22.6,5.3,24.6c4.5,1.8,9.6-2.6,12.7-8.7c1.9,5.4,6.4,8.7,11.7,9.1
	c7.1,0.5,12.7-5.1,15.9-11.8c2.6-0.6,5-2.1,7-4c0.2,8.9,5.8,14.4,12.7,15c6.2,0.5,11.4-4,14.7-9.6c3.3-0.5,6-2.3,8.2-4.8
	c0,2.8,0,5.7,0,8.7c0.1,2.6,0.4,3.6,0.4,3.6c5.3,2,7.6,0.1,9.1-12.5c0.3,0.3,0.6,0.6,1,0.7c1,0.6,2,0.8,3.2,0.8
	c2.8,8.3,6,11.5,10.8,12.1c5.1,0.6,11.9-4.8,14.7-12.3c0.4-1.2,0.4-1.2,0.6-1.7c1.2-3.5,2.7-7.5,3.8-11c3.7,2.4,6.6,6.6,5.4,12.7
	c-1.4,6.6-5.3,8-7.1,6.7c-0.9-0.7-1.1-1.7-0.9-2.7c0.3-1,1.3-1.9,2.9-2c1.7-0.2,2.7-0.4,3.3-1.4c1-1.5,0.2-5.7,0.2-5.7
	c-0.7,0-1.9,0.3-3.7,1.1c-4.9,2.2-7.8,10.6-3.3,14.1c4.8,3.6,17.9,0,19.5-10.8c1.4-9.1-6.6-15.1-12.9-18.2c-0.5-0.3-1.2-0.5-1.6-0.9
	c0-0.1,0-0.2,0.1-0.4c0.4-2.6,0.6-6.6-0.6-7.8c-1.7-1.6-8.1,2.4-8.6,5.4c-0.6,2.8,0.9,5.1,2.9,7C397.4,51.3,395.7,60.2,393.2,64.3z
	 M345,47.3c3.4-2.8,6.2,1.8,5.4,7c-0.4,2.8-1.3,5.4-2.5,7.4C340.9,60.6,340.4,51.1,345,47.3z M333.3,54.6c0.9-7.2,3.6-12.5,6.6-13.2
	c-5.7,7.7-3.9,21.8,5.6,23.7c-1.9,1.9-4.2,3.1-6.4,3C334.4,67.8,332.3,62.6,333.3,54.6z M309,41.8c4-3.4,7.6,1.7,5.8,13.3
	c-0.3,2.1-0.8,3.9-1.6,5.6C304.4,59.6,304.1,45.8,309,41.8z M297.8,55.4c0.4-3.4,1.5-6.4,2.9-9c-0.7,7.7,2.2,16.2,10,17.6
	c0.2,0.1,0.4,0.1,0.6,0.1c-2.2,3.1-5.1,4.9-7.9,4.7C298.9,68.6,296.7,63.4,297.8,55.4z"/>
<g>
	<path fill="#2B2B2A" d="M63.3,38.6c1.8,0.3,3.7,0.6,5.6,1c0.1,0.1,0.2,0.1,0.2,0.1c-1.6,10.5-2.2,22.5-2.3,35.8
		c0,2.6,0.4,3.6,0.4,3.6c5.6,2,7.8-0.2,9.3-14.8c4.4-11,7.3-13.9,8.7-13.6c1.5,0.3,2.2,3,0,12.1c-2.5,10.3,0.8,16.8,6.1,17.4
		c4.2,0.4,9.3-3.2,12.4-8.7c0.9,4.3,2.9,7.3,5.8,8c6,1.4,11.1-4.7,13.8-12c0,0,0-0.1,0-0.1c2.1-4.2,4.1-8.3,5.6-12.6
		c3.1,2,5.7,5.3,5.6,9.9c-1.6,0.5-3.2,1.1-4.9,1.8c-5.8,2.7-7.9,8.4-3.9,11c5.3,3.2,17.9,0,19.5-10.8l0-0.2c3.8-1.3,7.1-3.5,8.6-7.6
		c0.9-2.4-0.3-3.4-1.7-2.9c-0.2,0-0.2,0-0.2,0c-1.1,3.4-3.7,5.1-6.9,6.2c-1.3-6.7-7.7-11.2-12.8-13.9c-0.6-0.3-1.2-0.5-1.6-0.9
		c0,0,0-0.2,0.1-0.3c0.4-2.7,0.6-6.6-0.6-7.8c-1.6-1.6-8,2.3-8.5,5.4c-0.6,2.8,0.9,5.1,2.9,6.9c-0.7,5.6-3.1,13.7-5.3,18.1
		c0,0,0,0,0,0c-1.6,3.2-3.6,5.5-5.2,5.2c-2.2-0.4-2.5-7.2-1-15c1.5-7.7,4.6-13.1,4.6-13.1c-5.9-4.1-11.4-0.7-13.5,8.6
		c-0.8,3.8-1.1,7.5-1,10.7c-2,4.9-5.5,8.9-7.8,8.5c-2.4-0.5-2-6.7-0.5-13.7c2.3-10.7,1.2-16.5-2.1-17.4c-3.9-0.8-10.3,3.4-15.4,12.6
		c0.6-5.4,1.2-10.7,2.1-15.7c13.4-0.3,25.7-6.6,29.3-20.9c3.6-14.5-12-28.9-26.9-11.8c-5.7,6.6-9.4,15.6-11.6,26.6
		c-2-0.5-4-0.9-5.8-1.3c3.4-17.2,6.5-14.5,6.6-14.6c0.8-3.3-8.1-4.8-12.2-0.4c-2.5,2.5-4.2,6.5-5.4,12.7c-25.7-5-37.2-4.5-45.7-1.6
		c-9.7,3.5-8.6,13.4-4.2,16.4c0,0,1.6-4.5,9.5-7.1c3.9-1.2,13.5-4.9,39.4-1.6c-0.3,1.8-0.5,3.7-0.7,5.8c-3.5,32.4-11.7,41.6-19.4,39
		c-7.6-2.6-5-17.3,8.4-19.7c-0.1,0-4.9-9.8-13.3-3.8c-10,7-7.4,23.3,2.9,26.5c14.7,4.5,27.3-8.7,33.2-45.4
		C63.2,39,63.3,38.8,63.3,38.6z M128,74.7c-1.7-0.8-1.3-3.8,1.3-4.8c1.3-0.5,2.9-0.9,4.7-1.2C132.5,74.2,129.8,75.6,128,74.7z
		 M90.3,8.4c6.3-7.4,14-1.8,11.5,10.7c-2.1,10.5-9.5,17-21.7,16.7C82.5,23.7,85.9,13.7,90.3,8.4z"/>
	<path fill="#2B2B2A" d="M114.3,43c2.6,0.7,5.8-0.7,7.4-3.5c2-3.5,1.8-6.3-2.8-8.1c-3.8-1.6-7.8-0.3-8.7,4.2
		C109.5,38.8,110.8,42.1,114.3,43z"/>
</g>
<path fill="#2B2B2A" d="M164.8,147.2c0,0-1.7,4.5-9.5,7c-4.8,1.5-17.4,6.4-56.1-1.1c-0.2-0.1-0.4-0.1-0.5-0.1
	c1.2-6.8,2.3-14.6,3.4-23.6c1.3-11.7,4.3-15,4.3-15c-3.3-3.1-7.4-3.3-10.1,1.1c-0.9-1-2.1-1.6-3.4-2c-8.4-2.3-16.1,4.8-17.9,15.9
	c-1.7,10.6,2.2,18.7,8.5,18.1c3.8-0.3,6.2-3.2,7.9-6.5c-0.5,3.7-1.1,7.4-1.7,11.1c-14.5,0.2-27,7.7-30.3,20.9
	c-4.2,17,12.1,27.9,25.7,14.5c5.6-5.5,9.3-14.3,12.2-28.1c38.5,8.8,53,8.9,63.4,5.3C170.4,161.4,169.1,150.3,164.8,147.2z M79,183.7
	c-6.7,7-15.3,2.6-12.8-10c1.8-9.1,8.8-16.2,22.2-15.5C86.1,169.5,83,179.4,79,183.7z M93.9,122.6l-1.2,9.2
	c-2.3,7.7-5.1,10.8-7.1,10.3c-2.4-0.6-2.2-8.1-0.8-13.9c1.2-5.3,3.9-11,7.5-10.8c1,0.1,1.8,0.4,2.5,0.9
	C94.5,119.6,94.2,120.9,93.9,122.6z"/>
<path fill="#2B2B2A" d="M224,101.5c-0.2,0.1-0.6,0.2-0.9,0.2c-3.3,0.8-6.7,1.3-10.3,1.4c1.9-5.7,3.6-8.5,3.6-8.5s-4.7-4.8-10.4,0.5
	c-1.4,1.5-2.6,4.2-3.6,7.5C182,100.7,160,92.3,142.2,95c-10.3,1.7-10.7,11-6.9,14.8c0,0,2.4-3.7,10.5-5.2
	c18.1-3.7,37.3,2.1,55.3,3.9c-0.7,3.9-1.1,8.2-1.5,12.3c-0.4,4-0.3,8.4,0.1,12.3c-1.8,4.7-4.6,8.5-6.7,8.1
	c-2.4-0.5-2.5-6.9-1.6-13.7c0.5-2.8,0.9-5.3,0.9-5.3c-5-4.8-8.9-3.2-9.4,2.9l-0.2,2.8c-2.3,9-5.4,12.6-7.4,12.1
	c-2.5-0.7-2.3-8.2-0.9-14c1.3-5.3,4.6-10.7,8.2-11.5c3.7-0.8,7.8,2.1,9.4,5.5c0.4,0.9,2.7-2.3,1.9-4.8c-0.8-2.6-5.1-5.4-10.8-5.1
	c-8.8,0.3-16.8,6.1-18.6,17.3c-0.3,2-0.4,3.9-0.4,5.7c-2.1,5.6-7.3,10.9-14.1,9.6c-2.3-0.4-4.3-2.8-5.6-5.7
	c19-9.9,21.8-23.4,8.4-25.7c-9.8-1.5-17.6,5.9-19.5,16.8c-0.3,1.7-0.3,3.4-0.1,4.9c-1.9,5.4-4.9,10.7-7.3,10.2
	c-2.3-0.5-0.1-8.3,4.9-22.5c2.3-6.5,1.9-7.5-9.8-6.3c-7.1,0.7-9.3-2.7-9.3-2.7s-1,0.9-1.1,1.2c-2,2.3-1.2,6.1,1.6,8.4
	c-1.3,7.4-5.2,17.7-9.6,22.9l0,0.1c0.2,1.4,1.9,2,3.5,0.1c4.5-6,8.8-14.3,10.8-21.1c0.8,0,1.7,0,2.6-0.1l0.7-0.1
	c-4.4,13.6-4.5,23.2,1.1,24.7c5.5,1.3,10.2-3.8,13.1-10.2c2.3,5.5,7.1,9,11,9.7c9.3,1.4,16.1-3.8,19.4-9.2c1.3,4.8,4.3,7.8,8.2,7.5
	c5.4-0.5,8.2-6,9.6-10.5c0.4,5.8,2,9.7,5.9,10.6c5,1.2,9.3-2.3,12.2-7.8c0.9,3.8,2.4,6.6,4.6,7.5c5.1,2.2,11-4,13.7-11.3
	c0.9-2.4-0.3-3.4-1.7-2.9c-0.1,0.1-0.1,0.1-0.1,0.1c-1.9,5.4-4.9,10.5-7.2,9.7c-2.1-0.8-1.7-12.8-0.7-20.3c0.6-4.7,1.3-8.3,2-11.7
	c3.6,0,7.1-0.3,10.5-1.1C226.8,106.8,227.2,102.6,224,101.5z M143.2,126.9c1.3-5.3,4.3-13,7.4-12.2c2.7,0.7,1.6,13.3-7.2,19.8
	C142.9,131.9,142.7,129.2,143.2,126.9z"/>
<path fill="#2B2B2A" d="M298.2,139.4L298.2,139.4c-1.6,4.5-3.5,6.4-5.3,5.8c-1.8-0.6-0.9-7.7,1.8-19.9c2.3-10.7,1.8-16.8-1.8-17.9
	c-4.8-1.6-10.1,2.5-15.5,12.7c1.2-9.1,2.9-10.4,2.9-10.4s-4.8-5.1-9.8-1.6c-1.7,1.2-2.7,3.3-3.2,6.4c-1.8,0.2-3.5,0.2-5.2,0.1
	c-1.7-6.3-6.1-8-9.3-5.8c-0.8-0.4-1.8-0.5-3-0.6c-9.4-0.5-17.2,7.8-18.4,19.1c-1.2,10.9,4.8,17.7,12.6,18.2
	c10.3,0.8,17.4-11.3,18.5-20.6c0.4-2.5,0.4-4.6,0.3-6.5c1.4-0.1,2.8-0.3,4.1-0.6c-0.5,5.4-0.2,12.8,0,22.1c0.1,2.6,0.4,3.6,0.4,3.6
	c5.6,2,7.8-0.2,9.3-14.6c4.5-11.3,7.8-14.8,9.2-14.5c1.6,0.6,1.8,3.7-0.5,12.8c-3.3,14.1-1.7,21.6,2.6,23.3
	c4.4,1.8,9.6-0.9,12.3-8.1C300.8,139.8,299.5,138.8,298.2,139.4z M258.2,125c-1.2,8.2-6.4,13.8-11.3,13.6c-4.6-0.2-6.8-5.4-5.7-13.4
	c1.1-8.4,4.2-14.7,8-14.6c0.5,0.1,1,0.1,1.5,0.3c-1.5,3,1.4,6.4,5.1,7c0.7,0.1,1.3,0.2,2.1,0.3C258.3,120.3,258.5,122.7,258.2,125z"
	/>
<path fill="#2B2B2A" d="M375.5,141c0,0-1.6,4.5-9.4,7c-6.8,2.1-17.6,3-27,1.4c1.6-8,2.7-16.7,3.6-25.2c1.3-12.3,4.3-15,4.3-15
	c-4.4-4.3-11.2-3.2-12.6,8l-0.8,6.6c-2.2,9-5.6,13.1-7.9,12.5c-2-0.5-1.7-5.1,0.5-13.5c2.9-11.5,1.6-16.8-8.3-13.3
	c0,0,1.4,3-1.4,14.6c-2.3,9.8-0.6,17,5.6,17.6c4.7,0.5,8.2-3.8,10.2-7.8c-0.7,4.9-1.4,9.3-2.1,13.5c-13-1.8-26.3,3.8-29.2,18.5
	c-3.6,18.9,15.4,23.8,26.4,12.8c4.9-5,8.3-13.8,10.7-24.1c9,2.2,22.5,5.9,33.4,2.1C381,153.4,379.9,144,375.5,141z M318.5,178.2
	c-6.8,6.8-12.9-0.5-11.5-9.8c1.4-9.5,8.8-16.5,21.9-15.5C326.4,165,323.3,173.5,318.5,178.2z"/>
<path fill="#2B2B2A" d="M419.2,126.7L419.2,126.7c-1.9,5.5-4.9,10.1-7.3,10c-2.5-0.2-3-7.1-1.7-13.9c1.3-8.4,4.5-15,4.5-15
	c-4.5-4.4-11.5-3.2-13,8c-0.4,2.9-0.6,5.5-0.7,7.8c-2.4,8.9-5.5,13.1-7.5,12.6c-3.1-0.7-2.6-9.6,0.2-20.6
	c2.9-11.5,1.6-16.8-8.3-13.3c0,0,0.9,2.1-0.3,9.5c-2.1,0.3-4.2,0.3-6.2,0.2c-1.7-6.3-6.1-8-9.3-5.8c-0.8-0.4-1.8-0.5-3-0.6
	c-9.4-0.5-17.2,7.8-18.4,19.1c-1.2,10.9,4.8,17.7,12.6,18.2c10.3,0.8,17.4-11.3,18.5-20.6c0.4-2.5,0.4-4.6,0.3-6.5
	c1.7-0.1,3.4-0.4,5-0.7c-0.1,0.6-0.3,1.3-0.4,1.9c-3.3,14-1.4,24,5.7,24.7c5.7,0.6,9.7-6.9,11.4-12c0.5,6.6,2.8,10.1,6.1,11.3
	c5,1.9,10.6-2.8,13.7-11.3C421.8,127.2,420.6,126.2,419.2,126.7z M375,122.5c-1.2,8.2-6.4,13.8-11.3,13.6c-4.6-0.2-6.8-5.4-5.7-13.4
	c1.1-8.4,4.2-14.7,8-14.6c0.5,0.1,1,0.1,1.5,0.3c-1.5,3,1.4,6.4,5.1,7c0.7,0.1,1.3,0.2,2.1,0.3C375.2,117.8,375.4,120.1,375,122.5z"
	/>
</svg>
