<?xml version="1.0" encoding="utf-8"?>
<!-- Generator: Adobe Illustrator 18.1.1, SVG Export Plug-In . SVG Version: 6.00 Build 0)  -->
<!DOCTYPE svg PUBLIC "-//W3C//DTD SVG 1.1//EN" "http://www.w3.org/Graphics/SVG/1.1/DTD/svg11.dtd">
<svg version="1.1" id="rbs-logo" xmlns="http://www.w3.org/2000/svg" xmlns:xlink="http://www.w3.org/1999/xlink" x="0px" y="0px"
	 viewBox="0 0 344 465.3" enable-background="new 0 0 344 465.3" xml:space="preserve">
<path id="bomb" fill="#302F2E" d="M171.8,247.2c-28.8-1.4-53.3-10.7-74.4-28.8c-9.7-8.3-17.2-18.5-24.1-29.2
	c-1.6-2.5-3.4-3.6-6.5-3.7c-8.8-0.2-13.2-4.8-13.6-13.6c-0.1-2.3,0-4.7,0-7c0-3-0.9-5.5-3.4-7.4c-0.5-0.4-1-1.6-0.8-2.2
	c1.2-3.9-0.1-6.9-2.9-9.4c-2.6-2.4-3.2-5.2-2.4-8.4c2.4-8.4,4.7-16.8,7.4-25.1c2.8-8.3,6.9-15.9,12.4-22.7
	c7-8.7,14.1-17.3,21.2-25.9c3.9-4.7,9-7.9,14.6-10.1c6.5-2.6,12.8-5.6,18.7-9.4c3.5-2.3,7.3-4,11-6c4-2.1,8.2-2.2,12.3-0.5
	c3.4,1.3,6.9,1.7,10.5,1.4c26.1-2.3,51.5,1.2,76.6,8.1c2,0.6,4.1,1.6,5.6,3c8.6,7.8,17.4,15.4,25.4,23.6
	c13.9,14.2,24.4,30.6,28.8,50.3c2.2,9.7,3.9,19.6,5.8,29.4c0.3,1.5-0.2,2.6-1.4,3.4c-1.5,1-3,2.1-4.6,3c-2.2,1.2-3.7,2.8-4.3,5.2
	c-2.8,9.8-5.6,19.5-8.4,29.3c-0.5,1.6-0.9,3.3-1.7,4.7c-0.7,1.2-1.8,2.5-3.1,3.1c-8,3.2-14.7,8.5-20.9,14.3
	c-5.6,5.1-11,10.4-17.6,14.4c-13.5,8.2-28.3,13-43.9,14.9C182.5,246.5,176.6,246.8,171.8,247.2z M53.6,117.4c-0.7,1-1.8,1.9-2,2.9
	c-1.5,6.2-2.7,12.5-4.3,18.7c-0.9,3.5,0.9,5.5,3.3,8c0.4-1.8,1-3.1,1.1-4.5c0.8-7.6,1.6-15.2,2.4-22.8
	C54.2,119,53.8,118.2,53.6,117.4c0.2-0.5,0.4-0.9,0.6-1.3c-0.3-0.1-0.6-0.1-0.9-0.2C53.5,116.5,53.6,117,53.6,117.4z M249.4,190.1
	c0,0.4,0.1,0.7,0.1,1.1c4.3,0,8.5,0,12.8,0c0,0.3,0,0.5,0,0.8c-4,0-8,0-11.9,0c0,0.1,0,0.3,0,0.4c7.4,0.8,14.7,1.6,22.1,2.4
	c0-0.3,0.1-0.5,0.1-0.8c-1.7-0.3-3.4-0.6-4.9-0.9c1.8-0.7,4.1,0.7,5.8-1.8c-1.4-0.2-2.8-0.4-4.2-0.6c0.7-0.6,1.5-0.8,2.2-1.2
	c2-0.9,3.1-2.2,3.1-4.6c0.1-16.9,0.5-33.8,0.5-50.7c0-3.9-0.5-7.8-1.2-11.6c-1.2-6.7-4.3-11.7-11.8-13.1c-5.5-1-11.1,1.6-12.9,6.9
	c-2,5.8-3.5,11.8-5.2,17.7c-0.9,3.2-1.9,6.3-1.5,9.8c0.8,8.9,1.3,17.8,2.2,26.6c0.4,4.4,1.4,8.9,2.3,13.2c0.6,2.8,2.4,4.5,5.3,5
	c2.5,0.4,5,0.8,7.2,1.1c-1.6,0-3.5-0.1-5.3,0C252.7,189.9,250.9,189,249.4,190.1z M278.8,119.2c0-0.9,0-1.5,0-2.2
	c-0.4-6.8-2.9-12.9-6.2-18.8C263,80.9,248.2,70,229.9,63.3c-14-5.1-28.6-7.4-43.2-9.4c-7.3-1-14.7-1.7-22-2.5
	c-3-0.3-5.9-0.9-8.9-1.1c-4.4-0.4-8.2,2.2-9.5,6.1c3.3,0,6.7-0.1,10,0c4.9,0.2,6.7,1.7,7.6,6.5c0.4,2.1,1.5,3,3.5,3.2
	c4.9,0.4,9.8,0.9,14.6,1.3c10.4,0.9,20.5,3.3,30.1,7.4c14.2,6.1,25.6,15.7,34.3,28.4c2.2,3.2,4.7,4.1,8.7,3.6
	c6.7-1,13.5-0.4,18.6,4.8C275.7,113.7,277,116.5,278.8,119.2z M80.2,125.7c0-2.8,0-5.7,0-8.5c0-1.4-0.2-2.8-0.3-4.2
	c-0.4-4.6-3.5-7.5-7.7-7.5c-5.8,0.1-11.6,5-12.5,10.7c-0.5,3-0.7,6.1-0.9,9.2c-0.5,7-1,13.9-1.5,20.9c-0.4,6.1-0.9,12.3-1.1,18.4
	c-0.2,3.7,1,5.1,4.5,5.6c3.9,0.6,7.9,0.8,11.9,1.3c1.5,0.2,2.3-0.4,2.6-1.9C77.9,155.1,80.6,140.6,80.2,125.7z M133.5,54.8
	c-1,0.2-1.7,0.3-2.4,0.5C109,61.4,89.7,72.4,73.1,88.1c-4.2,3.9-8.5,7.8-11.4,12.9c-1.5,2.7-2.7,5.5-2.9,9.2c2-1.5,3.6-2.7,5.2-3.9
	c3.3-2.6,6.9-3.5,11-2.2c1.3,0.4,2.8,0.7,4.1,1.1c1.6,0.6,2.8,0.2,4.1-0.9C90.4,98,97.7,91.8,105,85.7c3.8-3.2,7.8-6.2,11.7-9.4
	c1.9-1.6,3.8-3.3,3.1-6.1c-0.7-2.8,0.9-4.3,2.9-5.3c1.8-1,3.8-1.6,5.7-2.5C131.6,61.1,133.3,58.7,133.5,54.8z M242.4,64.7
	c1.7,1.5,3.5,3.1,5.3,4.7c0.2-0.2,0.4-0.4,0.6-0.6c-1.8-2.4-3.7-4.9-5.5-7.3c-2,0.4-2.5-1.5-3.5-2.5c-2-1.8-3.9-3.7-5.6-5.7
	c-2.8-3.3-6.2-5.2-10.6-5.7c-3.8-0.4-7.5-1.6-11.2-2.4c-1.9-0.4-4.1-0.5-5.7-1.5c-1.6-1-2.8-1.3-4.4-0.5c-0.3,0.2-0.8-0.1-1.2-0.1
	c-7.8-0.4-15.6-0.8-23.4-1.1c-7.6-0.4-15.3-0.8-22.9-1.1c-2.8-0.1-5.7-1-8.6,0.8c0.8,1.3,1.6,2.5,2.2,3.7c1.2,2.2,3,3.1,5.4,3.4
	c14,1.4,27.9,2.8,41.9,4.3c10.6,1.1,21.1,2.4,31.2,6.3c4.6,1.8,9.2,3.4,13.8,5C240.9,64.7,241.6,64.6,242.4,64.7z M136.8,48.1
	c-2.6-2-2.8-2-5.2-0.3c-0.9,0.6-1.7,1.3-2.6,1.9c-3.9,2.4-8.1,2.7-12.2,1.2c-2.3-0.9-4.3-0.8-6.5,0.1c-4.5,2-9,3.9-13.4,6
	c-6,2.7-10.8,6.8-14.2,12.5c-1.1,1.9-2.3,3.6-3.5,5.4c-0.3,0.5-0.7,1-1.1,1.3c-1.7,1-2.5,2.6-2.1,4.9c0.5-0.8,0.9-1.5,1.2-1.9
	c0.8-0.1,1.4,0,1.8-0.3c1.8-1.1,3.5-2.2,5.2-3.5c14.8-11,31-19,48.9-23.6C135.1,51.3,136.4,50.4,136.8,48.1z M283.9,122.7
	c-2.1,1.2-2.3,2.5-2.3,4c0.2,9,0.4,18,0.7,27c0.1,1.9,0.5,3.7,0.8,5.8c2.1-0.6,3.7-1.2,5.4-1.6c1.5-0.4,1.9-1.2,1.7-2.7
	c-1.6-9.4-3.1-18.8-4.7-28.2C285.2,125.5,284.5,124.2,283.9,122.7z M143.6,65.8c-1.6,0.1-3.3,0.2-4.9,0.3c-1.2,0.1-2-0.2-2.5-1.5
	c-0.6-1.5-1.8-2.1-3.4-1.2c-2,1-4,1.9-6,3c-0.7,0.3-1.3,0.9-2,1.5c8.3,4.1,26.3-0.4,32.4-7.7C150.8,57.4,145.8,59.1,143.6,65.8z
	 M156,64.8c-1.7,1.6-3.4,2.5-2.7,4.7c1.5,5,2.9,10,4.5,15c0.3,1.1,0.8,2.2,2.5,1.7c1.6-0.5,1.4-1.5,1.1-2.7
	c-1.3-5.2-2.5-10.3-3.9-15.5C157.3,67,156.6,66.1,156,64.8z M141.8,70.9c-0.2,0.1-0.5,0.1-0.7,0.2c-0.1,0.7-0.3,1.5-0.2,2.2
	c0.5,3.3,1.1,6.5,1.7,9.8c0.5,2.4,0.9,4.9,1.5,7.3c0.1,0.6,0.9,1,1.4,1.5c0.4-0.6,0.8-1.3,1.2-1.9c0.1-0.2,0-0.5-0.1-0.7
	c-1.1-5.4-2.2-10.9-3.4-16.3C142.9,72.2,142.2,71.6,141.8,70.9z M131.8,71.8c-0.3,0-0.6,0.1-0.9,0.1c-0.1,0.8-0.4,1.7-0.3,2.5
	c0.9,5.1,1.8,10.2,2.8,15.2c0.2,0.8,1.2,2,1.8,1.9c1.4-0.1,0.9-1.5,0.8-2.4c-1-5.1-1.9-10.3-2.9-15.4
	C132.9,73,132.2,72.4,131.8,71.8z M152.9,90c1.6-0.7,1.6-1.6,1.3-2.7c-1.4-5.4-2.8-10.9-4.2-16.4c-0.2-0.7-0.7-1.3-1-2
	c-0.2,0-0.4,0.1-0.6,0.1c-0.1,0.6-0.5,1.2-0.3,1.7C149.7,77.1,150.7,83.6,152.9,90z M124.8,70.5c-0.2,0.1-0.5,0.3-0.7,0.4
	c0,0.3-0.2,0.7-0.1,1c1.1,5.4,2.2,10.8,3.4,16.2c0.1,0.3,0.7,0.5,1,0.8c0.2-0.6,0.6-1.1,0.6-1.6c-0.8-4.7-1.5-9.5-2.5-14.2
	C126.3,72.1,125.4,71.3,124.8,70.5z M133.6,38.8c-1,2.1-1.8,3.8-2.6,5.5c0.3,0.2,0.6,0.4,0.9,0.6c0.7-1.1,1.4-2.3,2.2-3.4
	c0.2,0.2,0.4,0.4,0.6,0.6c0.4,2.5,2.1,0.9,3,1c0.8,0.9,1.4,1.7,2,2.4c3.2-2.9,2.6-4.7-2.6-7c-0.4,0.7-0.9,1.3-1.4,2.1
	C135,40.1,134.4,39.6,133.6,38.8z M151.1,67.9c-0.5,2.8,3.7,19,5.2,20.2C157.1,86.3,153,69.7,151.1,67.9z M139.8,58.7
	c-2.9,3-2.9,3-1.6,4.3c1.3-1.6,4-2.2,3-5.3c1.2-0.8,2.4-1.6,4-2.8c-0.8-0.8-1.4-1.4-1.9-1.8c-5.9,3-7.4,4.6-6.5,6.9
	C137.6,59.7,138.4,59.3,139.8,58.7z M130.3,40.3c-1.6,1.4-2.9,2.5-4.2,3.7c-1.9,1.8-1.9,2.5-0.6,4.6c0.7-1.2,1.4-2.4,2.1-3.7
	c0.4,0.6,0.7,1.1,1.3,2C129.5,44.4,132.1,42.9,130.3,40.3z M256.6,195.6c0,0.2,0,0.4-0.1,0.6c2.4,0.9,13,1.3,14.4,0
	C266.2,196,261.4,195.8,256.6,195.6z M56.6,170.5c0,0.3-0.1,0.7-0.1,1c5.8,0.6,11.5,1.2,17.3,1.8c0-0.3,0.1-0.6,0.1-0.9
	C68.1,171.8,62.3,171.2,56.6,170.5z M139.8,50.6c4.3-3.5,4.8-4.8,2.3-7.2C141.7,46,138.2,47.1,139.8,50.6z M144.6,47.7
	c-0.2,0-0.5,0-0.7-0.1c-1.6,2.3-3.7,4.2-4.6,7c2-1.5,3.7-3.1,5.2-4.9C144.9,49.3,144.6,48.3,144.6,47.7z M73,175.2
	c0-0.3,0.1-0.5,0.1-0.8c-5.4-0.5-10.8-1.1-16.1-1.6c0,0.2-0.1,0.5-0.1,0.7C62.3,174.1,67.6,174.6,73,175.2z M57.4,174.5
	c-0.1,0.3-0.1,0.6-0.2,0.9c2.4,0.8,4.8,1.3,7.4,1.3c0-0.3,0.1-0.5,0.1-0.8C62.3,175.5,59.9,175,57.4,174.5z M119.8,48.5
	c0.4,0,0.7,0.1,1.1,0.1c0.5-1,1.7-2-0.6-3.4C120.1,46.4,119.9,47.4,119.8,48.5z M142,61.1c-1.4,1-2.8,1.8-3.5,3.7
	C141,63.7,142,62.7,142,61.1z M122.5,49.3c0.2,0,0.4,0,0.6,0.1c1.2-2.3,1.2-2.3,0.2-4C123,46.8,122.7,48,122.5,49.3z M250.1,68.6
	c-0.2,0.1-0.4,0.2-0.6,0.3c-0.1,1.1,0.2,1.9,1.1,2.3c0.2-0.1,0.5-0.3,0.7-0.4C250.9,70.1,250.5,69.3,250.1,68.6z M279.7,137.7
	c0.7-1.5,0.6-2.2-1-1.9C278.9,136.3,279.2,136.9,279.7,137.7z M279.3,145.2c0.6-0.7,1-0.9,1-1.2c0-0.2-0.4-0.6-0.5-0.6
	c-0.3,0.1-0.7,0.3-0.7,0.6C278.9,144.3,279.1,144.7,279.3,145.2z"/>
<path id="crown" fill="#302F2E" d="M278.1,33.5c-1.2-2.3-2.9-1.4-4.5-0.9c-2.2,0.7-4.3,1.6-6.9,2.6c0.5-2.7,0.8-4.9,1.3-7.7
	c-2.7,0.7-5,1.3-7.1,1.8c1.5-2.3,3.1-4.6,4.5-7c0.5-0.9,0.7-2.4,0.3-3.3c-1-2.2-5.7-3.4-7.4-1.8c-1.7,1.5-3.1,3.4-4.2,5.4
	c-1.1,1.9-2.7,1.1-4.2,1.4c-1.4,0.2-1.7-0.8-1.8-1.9c-0.2-2.2-0.5-4.5,1.3-6.5c-2-2-2.5-2.1-4.3-0.6c-1.1,0.9-2.3,1.8-3.9,3.1
	c-0.2-2.8-0.2-4.9-0.5-7c-0.1-0.8-0.6-1.9-1.2-2.2c-3.8-1.5-7.1,0.7-7.2,4.7c-0.1,3.2-1.2,5.9-3,8.5c-1.6,2.3-3,4.8-4.4,7.2
	c-0.7,1.3-1.2,2.7-0.2,4.3c0,0,0,0,0,0c2.7,5.4,10.3,13,15,16.7c0,0,0,0,0,0c0.7,0.6,1.4,1.2,2.2,1.7c5.1,3.2,10.5,4.9,16.1,1.3
	c6.6-4.3,13.3-8.6,19.8-13.1C280.2,38.7,280,37.2,278.1,33.5z M260.2,17.7c0.9,1.1,1.7,2.1,2.5,3.1c-1.1,0.9-1.4,2.9-3.3,1.9
	C258,22,258.2,20.7,260.2,17.7z M238.8,11c-1.7,3-2.6,3.2-4.5,1.7c0-0.3,0-0.5-0.1-0.8C235.6,11.6,236.9,11.4,238.8,11z M238.9,49.5
	c-3.8-4.5-9.8-11.8-13.3-16.1c1.3-0.4,2.3,0.4,3.3,1.5c1.5,1.8,3.2,3.4,4.8,5.1c2.3,2.5,4.7,4.9,7,7.5
	C240.1,48.2,239.5,48.8,238.9,49.5z M249.8,54.3c-1.3-0.5-2.6-1.1-3.9-1.6c0.1-0.3,0.2-0.5,0.3-0.8c1.3,0.5,2.6,1,3.9,1.5
	C250,53.7,249.9,54,249.8,54.3z M264.2,47c-0.2-0.2-0.3-0.4-0.5-0.6c0.8-0.8,1.6-1.7,2.4-2.5c-3.7,2.4-7.5,4.7-11,7.3
	c-1.8,1.3-2.8,1-4.3-0.3c-6.9-6.2-13.8-12.3-20.8-18.3c-1.4-1.2-1.9-2.5-0.8-4.1c2.2-3.1,4.3-6.2,6.5-9.3c0.2,0.1,0.4,0.1,0.6,0.2
	c0.5,2,0.9,3.9,1.5,5.9c0.7,2.5,1.2,2.8,3.7,2.6c3.6-0.4,7.1-0.8,10.7-1.2c3.2-0.4,4.5,1,4.1,4.2c-0.3,2.3-0.8,4.6-1,6.9
	c-0.2,2.6,0.6,3.4,3.3,3.5c3.1,0.1,6.2,0.4,9.5,0.6c-0.2,0.6-0.4,0.9-0.5,1.3c0.2,0.2,0.4,0.4,0.7,0.6
	C266.8,44.8,265.5,45.9,264.2,47z M273.6,40.3c-1-1.1-1.7-1.8-2.5-2.7c1.2-1.2,2.2-2.7,3.6-1.4C276.5,37.8,273.9,38.5,273.6,40.3z"
	/>
<g id="text">
	<path fill="#302F2E" d="M333.1,355.4c-0.3,0.5-0.5,1-0.8,1.5c-1.1,2.5-2.9,3.8-5.7,3.6c-8.1-0.5-16.3-1-24.4-1.5
		c-2-0.1-4-0.2-6-0.3c-0.2,0.3-0.4,0.5-0.6,0.8c0.5,0.2,1,0.4,1.5,0.7c2.3,1.1,2.9,2.9,2.9,5.5c-0.2,8.3-0.1,16.7,0,25
		c0,3.9,0.7,4.7,4.5,5.2c2.6,0.3,5.1,0.5,7.7,0.7c4.5,0.4,6,2,6.3,6.5c0.1,2.9,0.2,5.8,0.2,8.7c0,8.6,0.1,17.2-0.1,25.7
		c-0.1,3.4-0.5,6.8-1.1,10.1c-1.2,5.7-4.2,8.2-10,8.1c-5.5-0.1-11-0.6-16.4-1.2c-19.4-2.2-38.9-4.4-58.3-6.7
		c-6.9-0.8-13.9-1.5-20.8-2.5c-6-0.9-8.1-3.5-8.1-9.6c0-24.9,0.1-49.8,0-74.7c0-3-0.5-6,3.9-6.8c-0.1-0.2-0.3-0.4-0.4-0.6
		c-0.7-0.1-1.3-0.2-2-0.3c-19.5-1.2-38.9-2.4-58.4-3.5c-11.9-0.7-23.8-1.4-35.7-2.1c-8.9-0.5-17.8-1.1-26.7-1.6
		c-16.3-1-32.6-1.9-48.9-2.9c-5-0.3-10-0.9-14.9-0.9c-4.6,0.1-8.1-1.2-10.2-5.5c0-2,0-4,0-6c0.7-0.1,1.4-0.4,2.2-0.3
		c16.6,0.8,33.3,1.6,49.9,2.5c14.9,0.8,29.8,1.6,44.7,2.4c14,0.7,27.9,1.4,41.9,2.2c8.7,0.5,17.4,1.2,26.2,1.7
		c6.3,0.3,12.6,0.5,19,0.7c4.3,0.2,8.7,0.3,13,0.6c5,0.4,7.8,3.2,7.9,8.2c0.2,11.5,0.2,23,0.2,34.5c0,10.8,0,21.6-0.1,32.5
		c0,4.9,0,9.8-0.1,14.7c0,0.6-0.3,1.2-0.6,2c2,0.2,4.1,0.4,6.2,0.7c12.2,1.3,24.3,2.5,36.5,3.9c8.2,0.9,16.4,2,24.6,2.9
		c6.4,0.7,12.8,1.1,19.1,1.6c1.3,0.1,2.7-0.2,3.9-0.7c1.6-0.7,2.6-1.9,2.6-3.9c0-7.7,0-15.3,0-23c0-4-0.7-4.8-4.6-5.4
		c-2.5-0.4-5-0.6-7.4-0.8c-4.7-0.2-6-1.2-6.6-6c-0.3-1.9-0.2-3.8-0.2-5.7c0-11.2,0.1-22.5,0.1-33.7c0-1,0-2,0-3.1c-1.1,0-2,0-3.2,0
		c-0.2,3.6-0.5,7.2-0.5,10.8c0.1,19.3,0.2,38.6,0.4,57.9c0,2.3,0,4.6,0,6.9c-7.7,1.8-11.5-3-11.7-8.9c-0.2-4.4-0.2-8.8-0.2-13.2
		c-0.1-5.1-0.3-10.2-0.2-15.2c0.1-9.6,0.3-19.3,0.3-28.9c0-2.5-0.2-5-0.3-7.5c0-0.9,0.1-1.7,0.2-2.6c-4.5-0.6-9.1-1.4-13.7-1.9
		c-2.9-0.3-5.8-0.1-8.7-0.2c-3.2-0.2-6.5-0.3-9.7-0.7c-4.4-0.5-6.3-2.7-6.4-7.1c0-2.3,0-4.6,0-7.2c3.6,0.4,6.7,0.9,9.8,1.1
		c10.7,0.7,21.5,1.1,32.2,1.8c7.9,0.5,15.8,1.3,23.6,1.8c10.8,0.7,21.6,1.2,32.4,1.8C333.1,350.4,333.1,352.9,333.1,355.4z"/>
	<path fill="#302F2E" d="M333.1,331.9c-1.7,0-3.3,0-5-0.1c-1.8-0.1-3.2-1.1-3.9-2.7c-0.7-1.9-1.4-4-1.5-6
		c-0.2-7.8-0.2-15.7-0.3-23.5c0-0.7,0-1.4-0.4-2.2c-1.1,3.1-3,6-3,9.4c0,1.9,0.1,3.8-0.1,5.7c-0.4,3.9-3.3,5.9-6.5,4.8
		c-1.5-0.5-2.1-1.5-2.3-3.1c-0.7-5.1-1.7-10.2-2.6-15.2c-0.1-0.5-0.4-1-1-1.5c0,10.9,0,21.8,0,32.7c-5.6,1.2-8.9-0.8-10.2-5.9
		c-0.3-1-0.5-2.1-0.5-3.2c0-12.9,0-25.8,0-38.8c1.4-0.5,2.6-1.1,3.9-1.6c0-0.1,0-0.3,0-0.4c-2.8-0.4-5.7-0.8-8.8-1.2
		c0,1.2,0,2.1,0,3c0,7.2,0.1,14.3,0.1,21.5c0,5.7-0.1,11.3-0.2,17c0,1.3-0.2,2.7-0.5,4c-0.7,3.4-1.9,4.7-5.4,4.6
		c-7.1-0.2-14.1-0.5-21.2-1c-3.7-0.3-5.4-2.3-6-6c-0.1-0.9-0.3-1.8-0.3-2.7c0-12.8,0-25.6,0-38.6c1-0.2,1.9-0.4,2.8-0.6
		c0-0.1,0-0.2,0-0.3c-2.4-0.6-4.7-1.2-7.3-1.8c0,6.1,0,12,0,17.8c0,7.8-0.1,15.6-0.2,23.5c0,0.8-0.1,1.7-0.2,2.5
		c-0.5,4-2.5,5.9-6.5,5.7c-6.6-0.3-13.3-0.7-19.9-1.1c-5.3-0.4-7.4-2.3-7.6-7.6c-0.2-6.9-0.1-13.8-0.1-20.7c0-5.2-0.1-10.5-0.1-15.7
		c0-0.8,0-1.6,0-2.5c0.9-0.2,1.6-0.3,2.3-0.4c0-0.1,0-0.3,0-0.4c-0.8-0.1-1.5-0.2-2.3-0.3c-7.7-0.1-15.5-0.1-23.2-0.3
		c-3.8-0.1-5.6-1.8-6.1-5.6c-0.2-2,0-4.1,0-6.6c1-0.2,2.1-0.6,3.2-0.6c6.8,0.1,13.7,0.3,20.5,0.4c10.7,0.2,21.4,0.5,32.1,0.7
		c6.5,0.1,13.1-0.1,19.6,0c4.2,0.1,8.4,0.5,12.6,0.6c4.2,0.1,8.4-0.2,12.6,0c4.5,0.3,9.1,0.9,13.6,1.6c1,0.2,2.1,1,2.9,1.8
		c3.6,3.8,6.3,8.1,8,13.1c1,3,2.1,5.9,3.5,8.8c0-1,0.2-2.1,0-3c-0.8-2.7,0.1-5.1,1.1-7.5c1.2-3,2.3-6.1,3.4-9.1
		c1.1-2.9,2-3.7,4.4-3.7c2.6,0,4.7,1.3,5.7,3.7c0.5,1.2,0.7,2.5,1.1,3.8C333.1,295.2,333.1,313.6,333.1,331.9z M268.2,279.3
		c0,1.3,0,2.5,0,3.6c0.1,6.2,0.3,12.5,0.4,18.7c0.1,3.7,0,7.5,0.2,11.2c0.1,2.4,1.2,4.5,4.1,4.2c1.5-0.1,3.1,0.1,4.7,0.3
		c1.5,0.1,2.1-0.5,2.1-2c0.1-7,0.3-13.9,0.5-20.9c0.1-3.2,0.2-6.5,0-9.7c-0.2-3.8-1.9-5.4-5.7-5.4
		C272.6,279.3,270.7,279.3,268.2,279.3z M229.6,278.4c0,4.2,0,8.2,0,12.2c0.1,6.6,0.2,13.1,0.4,19.7c0.1,3.6,0.9,4.5,4.4,4.9
		c1.5,0.1,3,0.2,4.5,0.3c1.9,0.1,2.3-0.4,2.1-2.4c-0.1-0.6-0.1-1.2-0.1-1.7c0.2-6,0.5-12,0.7-18c0.1-3.1,0.1-6.2,0-9.2
		c-0.1-3.2-1.5-5.4-3.9-5.6C235.1,278.3,232.5,278.4,229.6,278.4z"/>
	<path fill="#302F2E" d="M10.6,349.9c0.2-0.7,0.5-1.4,0.8-2.3c1.9,0,4-0.1,6,0c5.6,0.3,11.1,0.7,16.7,1.2c2.7,0.2,5.5,0.5,8.1,1.1
		c3.4,0.8,4.7,2.6,4.8,6.1c0.1,4.1,0.1,8.2,0.2,12.2c0,0.6-0.1,1.3-0.2,2.1c-3.2,0.6-6.2,0.4-9-1.2c-3.3-1.9-2.1-5.3-2.7-8.3
		c-2.2,0-4.2,0-6.6,0c1.4,2.1,2.6,3.9,3.8,5.6c9.9,14,15.3,29.4,14.9,46.7c-0.1,2.4,0,4.8-0.1,7.2c-0.3,4.1-2.1,6-6.1,5.9
		c-4.1-0.1-8.1-0.5-12.2-0.9c-3.4-0.3-6.7-1-10.1-1.4c-5.7-0.7-7.5-2.5-8-7.7c0-0.3-0.2-0.6-0.4-0.9c0-7,0-14,0-21
		c2.6,0.1,5.2-0.1,7.7,0.4c4,0.7,5.8,3,6.1,7.1c0.2,2.3,0.2,4.7,0.1,7c-0.1,1.2-0.6,2.3-0.9,3.4c2.3,0.2,4.8,0.5,7.4,0.6
		c2.9,0.2,3-0.1,3.1-3.1c0.2-9.6-2.8-18.4-7.5-26.6c-3.6-6.3-7.8-12.4-11.7-18.6c-0.7-1.1-1.4-2.3-2.1-3.6c1.4-0.3,2.5-0.5,3.6-0.7
		c0.1-0.2,0.1-0.3,0.2-0.5c-3.5-0.6-5.2-2.9-6-5.9C10.6,352.6,10.6,351.2,10.6,349.9z"/>
	<path fill="#302F2E" d="M10.6,263.4c0.6-0.4,1.2-1.2,1.8-1.2c7.8,0.2,15.6,0.4,23.5,0.7c1.7,0.1,3.5,0.3,5.2,0.5
		c4.4,0.7,6.5,2.8,6.9,7.2c0.2,2.4,0.1,4.8,0.1,7.2c0,4.2,0.2,8.5,0,12.7c-0.3,6-2.1,7.7-8.1,8.3c-0.4,0-0.8,0.2-1.5,0.3
		c1,1.9,1.8,3.8,2.9,5.4c0.3,0.5,1.4,0.8,2.1,0.8c11.7,0.5,23.4,0.9,35.2,1.4c0.2,0,0.3,0.1,0.6,0.2c0,2.6,0.3,5.2-0.1,7.8
		c-0.3,2.2-2.4,3.5-5.4,3.4c-7.1-0.3-14.1-0.7-21.2-1.1c-3.6-0.2-7.1-0.6-10.7-0.8c-4.3-0.2-7.5-2.8-10.2-5.6
		c-2.6-2.7-4.2-6.3-6.4-9.7c0,4.7,0,9.2,0,14.1c-3.8-0.1-7.6,0.8-10.3-2.6c-1.1-1.4-2.2-3.3-2.2-5.1c-0.3-7.2-0.3-14.5-0.4-21.7
		c0-3.2-0.1-6.3-0.2-9.5c0-1.4,0.2-2.6,1.9-2.6c-1.2-1.5-2.4-2.9-3.6-4.3C10.6,267.4,10.6,265.4,10.6,263.4z M25.8,290.4
		c1.2,0,2.5,0,3.7,0c3.2-0.1,5.5-2.4,5.7-5.5c0.1-2.5,0-5-0.1-7.5c0-1.7-0.9-2.9-2.6-3.2c-2.1-0.3-4.2-0.3-6.7-0.5
		C25.8,279.5,25.8,284.7,25.8,290.4z"/>
	<path fill="#302F2E" d="M257.6,417.4c0.6-3.3,0.6-6.4-0.7-9.1c-2.6-5.2-5.4-10.3-8.4-15.3c-2.5-4.2-5.4-8.2-8-12.4
		c-0.8-1.2-1.3-2.6-2.1-4.1c1.4-0.3,2.5-0.6,4.1-0.9c-0.8-0.4-1.1-0.7-1.4-0.8c-2.6-0.8-4-2.7-4.2-5.3c-0.2-2.8,0-5.6,0-8.7
		c3,0.2,5.6,0.4,8.2,0.6c5.9,0.5,11.8,0.9,17.7,1.4c4.6,0.5,6.8,2.6,7.1,7.2c0.3,5.2,0.2,10.5,0.2,15.7c0,0.5-0.7,1.5-1.1,1.5
		c-2.4,0.3-4.8,0.2-7-1.2c-1.8-1.2-2.5-3-2.6-5.1c-0.1-1.5-0.2-3-0.3-4.6c-2-0.1-3.8-0.2-6.2-0.3c2.6,4,5,7.4,7.1,11.1
		c2.7,4.6,5.2,9.3,7.5,14.1c2.7,5.6,3,11.7,2.8,17.8c-0.1,2.9-0.1,5.8-0.4,8.7c-0.4,3.4-2.1,5-5.4,4.9c-5.1-0.2-10.3-0.7-15.4-1.2
		c-2.2-0.2-4.3-0.5-6.4-0.9c-2.9-0.5-4.7-2.3-5.5-5.1c-0.2-0.6-0.4-1.3-0.4-2c0-8.9,0-17.8,0-26.8c6.4-2.2,11.7,1.2,12.1,8
		c0.2,3.1,0.2,6.2,0.1,9.2c0,0.9-0.6,1.8-1,2.8c1.3,0.2,2.9,0.4,4.5,0.5C254.2,417.5,255.8,417.4,257.6,417.4z"/>
	<path fill="#302F2E" d="M143.3,276.8c-3.9-2.8-3.5-6.6-3.3-10.4c0.1-1.7,1.7-1.9,2.8-1.8c7.2,0.3,14.4,0.8,21.6,1.3
		c2.6,0.2,5.3,0.4,7.9,0.6c2.1,0.2,3.3,1.5,3.8,3.4c0.4,1.4,0.8,2.9,0.8,4.4c0.2,12.9,0.4,25.8,0.5,38.6c0,1.7-0.2,3.3-0.4,5
		c-0.4,3.8-2.3,5.9-6.1,5.8c-7.6-0.3-15.3-0.7-22.9-1.5c-4.6-0.5-6.1-2.5-6.2-7.2c-0.3-11.9-0.4-23.8-0.6-35.7
		C141.2,277.5,141.3,277.5,143.3,276.8z M154.1,277c-0.1,0.4-0.2,0.7-0.2,1c0,8.8-0.1,17.6-0.1,26.4c0,1.5,0.2,3,0.7,4.4
		c0.3,0.8,1.2,1.8,1.9,2c2.8,0.4,5.6,0.5,8.4,0.7c0-2.1,0-3.9,0-5.6c0.1-5.1,0.3-10.1,0.4-15.2c0.1-3.5,0.2-7.1,0.1-10.6
		c0-1.8-1.1-3-3-3.1C159.6,276.9,156.9,277,154.1,277z"/>
	<path fill="#302F2E" d="M82.5,276.1c0.8-0.2,1.4-0.3,2.2-0.5c-3.4-2.4-3.5-5.7-3.4-9.1c0.1-2.2,0.8-2.8,2.9-2.7
		c7.8,0.4,15.6,0.8,23.3,1.2c0.4,0,0.8,0.1,1.2,0.1c7.2,0.9,10.5,3.7,11,11.5c0.7,10.5,0.5,21.1,0.6,31.6c0,1.6-0.3,3.2-0.6,4.7
		c-1,4.5-3.5,6.8-8.1,7.2c-3,0.3-6,0.1-9-0.1c-4.6-0.3-9.3-0.6-13.9-1.2c-3.7-0.5-5.6-2.4-5.9-6.1c-0.4-5.3-0.5-10.6-0.5-16
		C82.4,289.9,82.5,283.1,82.5,276.1z M95.7,275.1c0,11.6,0,22.6,0,33.9c1.9,0,4.2,0,6.4,0c4.5-0.1,6-1.6,6.1-6
		c0.1-5.2,0.1-10.5,0-15.7c0-2.5-0.2-5-0.5-7.4c-0.2-1.8-1-3.5-3-3.8C101.8,275.6,99,275.5,95.7,275.1z"/>
	<path fill="#302F2E" d="M210.8,303.2c3.3,1.3,3.9,3.8,3.9,6.4c0,4,0,8-0.2,12c-0.1,2.4-1.4,3.8-3.9,3.7c-5.7-0.2-11.5-0.6-17.2-1.2
		c-2.4-0.2-4.2-2.8-4.2-5.7c-0.1-9.1-0.2-18.3-0.2-27.4c0-2.9,0-5.8,0-8.8c2.7,0,5.3,0,7.8,0c4.1,0.1,8.3,0.1,12.4,0.3
		c4.9,0.3,5.9,1.8,6.3,7.1c0.2,2.9-0.2,5.9-0.5,8.9C214.8,300.9,213.9,302.8,210.8,303.2z M200.2,307.4c0,1.6,0,2.9,0,4.2
		c0,0.3-0.1,0.8,0.1,1c0.3,0.5,0.8,1.1,1.3,1.2c2.2,0.5,3.5-0.5,3.8-2.7c0.4-2.1-0.3-3-2.8-3.3C201.9,307.6,201.1,307.5,200.2,307.4
		z M197.7,294.4c-0.1,0.2-0.2,0.3-0.3,0.5c3.1,0.5,2.3,3,2.6,5.1c1-0.1,1.9-0.2,2.8-0.2c2.2-0.1,2-1.7,2.1-3.2
		c0.1-1.7-1.1-2.1-2.4-2.1C200.8,294.3,199.3,294.4,197.7,294.4z"/>
	<path fill="#302F2E" d="M67.4,291.7c-1.7,0-3,0-4.8,0c0.2,2.5,0.4,4.9,0.5,7.3c0.2,4.2,0.2,4.2-3.9,4c-0.5,0-1,0-1.5-0.1
		c-4.3-0.2-7-2.8-7.1-7.1c-0.1-6.5-0.1-13-0.1-19.5c0-3.4,0.2-6.8,0.1-10.2c-0.1-2,0.9-2.8,2.6-2.7c2.5,0.2,5,0.7,7.6,0.8
		c2.6,0.1,5.1-0.1,7.7-0.1c1.7,0,3.5,0.1,5.2,0.3c3.4,0.4,4.8,1.8,5,5.2c0.2,3.3,0.2,6.6,0.3,10c0.1,7.2,0.2,14.5,0.3,21.7
		c0,2.6-0.1,2.7-2.7,2.4c-0.8-0.1-1.7-0.2-2.5-0.2c-4.2-0.2-6.4-2.2-6.7-6.4C67.3,295.4,67.4,293.7,67.4,291.7z M67.2,282.4
		c1.3-7.1,0.8-7.8-4.8-7.3c-0.1,0-0.3,0.2-0.5,0.3c0.2,2.3,0.5,4.6,0.7,7C64.3,282.4,65.7,282.4,67.2,282.4z"/>
	<path fill="#302F2E" d="M219,376.3c3.1,0.3,5.5,0.3,7.8,0.8c3.2,0.7,5.2,2.9,5.6,6.3c0.3,3.2,0.5,6.5,0.5,9.7c0,5,0.1,10-0.4,15
		c-0.5,4.9,0,9.8,0.2,14.6c0.1,1.6,0,3.3,0,4.8c-6.2,1.7-10.9-0.9-11.5-6.8c-0.7-6.8-0.6-13.6-0.9-20.4c0-0.4,0-0.8,0-1.2
		c0.1-4.2,0.2-8.4-0.8-12.6C218.8,383.4,219.2,380.1,219,376.3z M221.7,397.9c0.1,0,0.1,0,0.2,0c0-1.2,0-2.4,0-3.6
		c-0.1,0-0.1,0-0.2,0C221.7,395.5,221.7,396.7,221.7,397.9z"/>
	<path fill="#302F2E" d="M123,279.2c3.3,0.3,6.1,0.3,8.8,0.8c2.7,0.5,4.6,2.4,4.9,5.3c0.3,2.2,0.5,4.5,0.4,6.7
		c-0.2,5.5-0.7,10.9-0.8,16.4c-0.1,3.4,0.3,6.8,0.4,10.2c0,0.8,0,1.6,0,3c-2.7-0.3-5.2-0.3-7.6-0.9c-2.1-0.5-3.5-2.3-4-4.4
		c-0.5-2.1-0.8-4.2-0.9-6.4c-0.2-3.4-0.2-6.8,0-10.2c0.2-4.7-0.2-9.2-1.1-13.8C122.7,283.9,123,281.8,123,279.2z"/>
	<path fill="#302F2E" d="M220.2,358.9c1.6,0,2.7,0,3.8,0c6.9-0.1,7.9,4.1,7.8,9c0,1.8-0.6,3.6-1.4,5.2c-1.9,3.6-6.5,3.8-8.8,0.3
		c-1.4-2.1-2.1-4.3-1.5-7C220.6,364.2,220.2,361.7,220.2,358.9z"/>
	<path fill="#302F2E" d="M123.8,265c2.8,0,5-0.2,7.1,0c3.1,0.3,4.8,2.1,4.9,5.3c0.1,1.5-0.1,3.2-0.6,4.6c-1,3.1-4,4.4-7.2,3.4
		c-2.9-0.9-4.6-3.7-4.2-6.7C124,269.6,123.8,267.5,123.8,265z"/>
	<path fill="#302F2E" d="M198.8,423.6c-6.3,0.7-9.5-1.5-10.6-7.2c-0.2-1.1-0.4-2.1-0.4-3.2c-0.1-2.3,0-4.7,0-7.2
		c1.6-0.5,3.2-1.1,4.8-1.6c0-0.2,0-0.4,0-0.6c-6.7-0.6-13.4-1.1-20.7-1.7c0.6,0.7,0.8,1,1,1c3.3,1.1,4.1,3.5,4.1,6.7
		c0,3.6,0.3,7.1,0.4,10.7c0,0.5-0.1,1-0.1,1.4c-6.8,1.7-10.1-1.7-11.6-7.1c-0.7-2.7-0.7-5.6-0.7-8.4c-0.1-6.3,0.1-12.6,0.1-18.9
		c0-5.6,0-11.1,0-16.6c1.3-0.2,2.4-0.4,3.5-0.5c-2.1-1.3-3.6-2.8-4.3-5.1c-1-3.3-0.4-6.5-0.3-10.1c2.5,0.3,4.6,0.6,6.8,0.7
		c5.5,0.3,11,0.4,16.6,0.9c2.9,0.2,5.7,1,8.5,1.7c0.8,0.2,1.6,1.4,1.9,2.3c2,5.6,2.3,11.5,2.1,17.4c-0.3,8.3-0.8,16.6-1,25
		c-0.1,5.9,0.1,11.8,0.1,17.7C198.8,421.7,198.8,422.6,198.8,423.6z M177.1,369.5c0,7.1,0,13.9,0,20.7c3.7,0.6,7.1,1.2,10.9,1.9
		c0-2.4,0-4.5,0-6.5c-0.1-3.9-0.1-7.8-0.4-11.7c-0.2-2.5-1.9-4.3-4-4.4C181.5,369.4,179.3,369.5,177.1,369.5z"/>
	<path fill="#302F2E" d="M122.8,367.3c-7-0.7-13.2-1.3-19.6-2c0,3.7,0,7.1,0,10.6c5.5,0.2,11,0.4,16.6,0.7c0,3.1,0.3,6.1-0.1,9
		c-0.4,3.3-2.4,4.8-6,4.8c-3.1,0-6.1-0.4-9.2-0.7c-1-0.1-2-0.2-3.7-0.3c3.4,2.4,1.9,5.4,2.3,8c0.3,1.7-0.4,4,0.5,5
		c0.9,1,3.2,0.7,4.9,0.9c4.6,0.4,9.3,0.8,14.4,1.2c-0.1,3.2,0.5,6.7-0.6,10.1c-0.8,2.4-2.9,3.1-5.3,3c-2.8-0.1-5.7-0.3-8.5-0.8
		c-4.1-0.6-8.1-1.5-12.1-2.2c-2.6-0.4-3.5-2.6-4.5-4.3c-0.9-1.5-1.1-3.7-1.1-5.5c-0.1-11.1-0.1-22.1-0.1-33.2c0-1.7,0-3.5,0-5.4
		c0.8-0.3,1.6-0.5,2.9-0.9c-5.2-2.6-4.7-7.2-4.4-11.6c0.1-1.6,0.7-2.2,2.4-2.1c4.7,0.3,9.3,0.5,14,0.8c3.4,0.2,6.8,0.3,10.2,0.7
		c4.3,0.5,6.6,2.8,7.1,7.1C123,362.4,122.8,364.8,122.8,367.3z"/>
	<path fill="#302F2E" d="M58.2,393c1.3,0.5,2.6,1.1,3.9,1.3c1.2,0.3,1.8,0.8,1.8,2c0,5.1,0,10.1,0,15.2c-7.1,1.5-12.2-1.8-12.5-9
		c-0.3-5.6-0.2-11.3-0.3-17c-0.1-7.2-0.2-14.4-0.3-21.6c0-0.3,0.1-0.6,0.2-1.1c0.9,0,1.7-0.1,3.3-0.1c-5.6-3.4-4.6-8.1-4-13
		c2.2,0.3,4.2,0.6,6.3,0.7c5.5,0.2,11,0.4,16.5,0.6c1.7,0.1,3.5,0.3,5.2,0.6c4.9,1.1,7.6,4,7.8,9.3c0.2,8.1,0.1,16.2,0,24.2
		c0,1.8-0.7,3.6-1.2,5.3c-0.7,2.3-2.8,3.2-4.9,3.8c-4,1.1-7.9,0.4-11.9-0.2c-3.2-0.5-6.3-1.2-9.5-1.8
		C58.3,392.6,58.3,392.8,58.2,393z M63.5,383c1.3,0.1,2.7,0.3,4,0.3c3.9-0.1,6-1.5,6.4-5.3c0.4-3.8,0.1-7.6-0.2-11.4
		c-0.1-1.1-1.4-2.6-2.4-2.9c-2.2-0.6-4.6-0.6-7-0.9C64,369.8,63.7,376.2,63.5,383z"/>
	<path fill="#302F2E" d="M124.7,352.8c4.9,0.3,9.6,0.5,14.2,0.8c4.2,0.3,8.3,0.6,12.4,1c0.8,0.1,1.7,0.2,2.5,0.3
		c7,1.2,9.8,5.9,7.5,13.1c-7.6-0.3-15.4-0.7-23.4-1c0,3.4,0,6.6,0,9.9c0,7.6,0.1,15.1,0.1,22.7c0,0.3,0,0.7,0,1
		c0.2,4.8,1.4,6.1,6.1,6.4c5.4,0.3,10.8,0.7,16.2,1c1.6,0.1,2.3,0.7,2.1,2.3c-0.3,2-0.2,4-0.7,5.9c-0.8,3.3-2.5,4.7-5.9,4.7
		c-3.9,0-7.8-0.3-11.7-0.6c-3.2-0.2-6.3-0.5-9.4-0.9c-1.6-0.2-3.1-0.5-4.6-0.9c-2-0.6-3.3-2.1-3.7-4.1c-0.5-3.2-1-6.4-1-9.7
		c-0.1-11.5,0-23,0-34.5c0-0.7,0-1.5,0-2.4c0.8-0.3,1.6-0.5,2.5-0.8C123.3,363.2,123.8,358.2,124.7,352.8z"/>
	<path fill="#302F2E" d="M155.6,381.3c0,4.4,0,8.5,0,12.5c0,1.1,0.5,1.7,1.6,1.8c1,0,2,0.2,3.5,0.3c0,2.2,0.3,4.4,0,6.5
		c-0.2,1.8-1.5,3-3.5,2.9c-4.7-0.3-9.3-0.7-13.9-1.1c-1.2-0.1-1.8-0.8-1.8-2c0-1.4-0.1-2.8,0-4.2c0.2-2.7,1.4-3.8,4.2-3.8
		c0.4,0,0.8,0,1.5,0c0-4.7,0-9.4,0-14c-4.8-1.1-6.2-3.7-4.7-9c1.8,0,3.6,0,5.4,0c2.7,0.1,5.5,0.2,8.2,0.3c2,0.1,3.5,0.9,4,2.8
		c0.5,2.2,0.6,4.5,0.9,7C159.1,381.3,157.6,381.3,155.6,381.3z"/>
</g>
</svg>
